OctagonVariable-HROT30.ufo
<glyph name="quotedbl" format="2">
  <advance width="222"/>
  <unicode hex="0022"/>
  <outline>
    <contour>
      <point x="30" y="403" type="line"/>
      <point x="102" y="403" type="line"/>
      <point x="102" y="416" type="line"/>
      <point x="30" y="416" type="line"/>
    </contour>
    <contour>
      <point x="41" y="403" type="line"/>
      <point x="80" y="498" type="line"/>
      <point x="71" y="514" type="line"/>
      <point x="30" y="414" type="line"/>
    </contour>
    <contour>
      <point x="90" y="403" type="line"/>
      <point x="102" y="414" type="line"/>
      <point x="84" y="515" type="line"/>
      <point x="75" y="499" type="line"/>
    </contour>
    <contour>
      <point x="30" y="403" type="line"/>
      <point x="44" y="403" type="line"/>
      <point x="44" y="615" type="line"/>
      <point x="30" y="615" type="line"/>
    </contour>
    <contour>
      <point x="71" y="502" type="line"/>
      <point x="85" y="502" type="line"/>
      <point x="85" y="515" type="line"/>
      <point x="71" y="515" type="line"/>
    </contour>
    <contour>
      <point x="88" y="403" type="line"/>
      <point x="102" y="403" type="line"/>
      <point x="102" y="615" type="line"/>
      <point x="88" y="615" type="line"/>
    </contour>
    <contour>
      <point x="72" y="503" type="line"/>
      <point x="80" y="519" type="line"/>
      <point x="41" y="615" type="line"/>
      <point x="30" y="603" type="line"/>
    </contour>
    <contour>
      <point x="32" y="601" type="line"/>
      <point x="102" y="601" type="line"/>
      <point x="102" y="615" type="line"/>
      <point x="32" y="615" type="line"/>
    </contour>
    <contour>
      <point x="84" y="503" type="line"/>
      <point x="101" y="603" type="line"/>
      <point x="90" y="615" type="line"/>
      <point x="75" y="519" type="line"/>
    </contour>
    <contour>
      <point x="120" y="403" type="line"/>
      <point x="192" y="403" type="line"/>
      <point x="192" y="416" type="line"/>
      <point x="120" y="416" type="line"/>
    </contour>
    <contour>
      <point x="131" y="403" type="line"/>
      <point x="170" y="498" type="line"/>
      <point x="161" y="514" type="line"/>
      <point x="120" y="414" type="line"/>
    </contour>
    <contour>
      <point x="180" y="403" type="line"/>
      <point x="192" y="414" type="line"/>
      <point x="174" y="515" type="line"/>
      <point x="165" y="499" type="line"/>
    </contour>
    <contour>
      <point x="120" y="403" type="line"/>
      <point x="134" y="403" type="line"/>
      <point x="134" y="615" type="line"/>
      <point x="120" y="615" type="line"/>
    </contour>
    <contour>
      <point x="161" y="502" type="line"/>
      <point x="175" y="502" type="line"/>
      <point x="175" y="515" type="line"/>
      <point x="161" y="515" type="line"/>
    </contour>
    <contour>
      <point x="178" y="403" type="line"/>
      <point x="192" y="403" type="line"/>
      <point x="192" y="615" type="line"/>
      <point x="178" y="615" type="line"/>
    </contour>
    <contour>
      <point x="163" y="503" type="line"/>
      <point x="170" y="519" type="line"/>
      <point x="131" y="615" type="line"/>
      <point x="120" y="603" type="line"/>
    </contour>
    <contour>
      <point x="122" y="601" type="line"/>
      <point x="192" y="601" type="line"/>
      <point x="192" y="615" type="line"/>
      <point x="122" y="615" type="line"/>
    </contour>
    <contour>
      <point x="174" y="503" type="line"/>
      <point x="191" y="603" type="line"/>
      <point x="180" y="615" type="line"/>
      <point x="165" y="519" type="line"/>
    </contour>
  </outline>
</glyph>
<glyph name="numbersign" format="2">
  <advance width="496"/>
  <unicode hex="0023"/>
  <outline>
    <contour>
      <point x="192" y="422" type="line"/>
      <point x="209" y="422" type="line"/>
      <point x="275" y="600" type="line"/>
      <point x="258" y="600" type="line"/>
    </contour>
    <contour>
      <point x="272" y="422" type="line"/>
      <point x="290" y="422" type="line"/>
      <point x="356" y="600" type="line"/>
      <point x="338" y="600" type="line"/>
    </contour>
    <contour>
      <point x="297" y="535" type="line"/>
      <point x="309" y="550" type="line"/>
      <point x="269" y="600" type="line"/>
      <point x="255" y="585" type="line"/>
    </contour>
    <contour>
      <point x="302" y="534" type="line"/>
      <point x="349" y="584" type="line"/>
      <point x="343" y="600" type="line"/>
      <point x="296" y="549" type="line"/>
    </contour>
    <contour>
      <point x="258" y="580" type="line"/>
      <point x="349" y="580" type="line"/>
      <point x="349" y="600" type="line"/>
      <point x="258" y="600" type="line"/>
    </contour>
    <contour>
      <point x="124" y="65" type="line"/>
      <point x="112" y="50" type="line"/>
      <point x="121" y="0" type="line"/>
      <point x="135" y="15" type="line"/>
    </contour>
    <contour>
      <point x="119" y="66" type="line"/>
      <point x="41" y="16" type="line"/>
      <point x="47" y="0" type="line"/>
      <point x="126" y="51" type="line"/>
    </contour>
    <contour>
      <point x="133" y="20" type="line"/>
      <point x="42" y="20" type="line"/>
      <point x="42" y="0" type="line"/>
      <point x="133" y="0" type="line"/>
    </contour>
    <contour>
      <point x="248" y="422" type="line"/>
      <point x="265" y="422" type="line"/>
      <point x="313" y="552" type="line"/>
      <point x="298" y="558" type="line"/>
    </contour>
    <contour>
      <point x="261" y="258" type="line"/>
      <point x="278" y="258" type="line"/>
      <point x="405" y="600" type="line"/>
      <point x="388" y="600" type="line"/>
    </contour>
    <contour>
      <point x="341" y="258" type="line"/>
      <point x="359" y="258" type="line"/>
      <point x="486" y="600" type="line"/>
      <point x="468" y="600" type="line"/>
    </contour>
    <contour>
      <point x="427" y="535" type="line"/>
      <point x="439" y="550" type="line"/>
      <point x="399" y="600" type="line"/>
      <point x="385" y="585" type="line"/>
    </contour>
    <contour>
      <point x="432" y="534" type="line"/>
      <point x="479" y="584" type="line"/>
      <point x="473" y="600" type="line"/>
      <point x="426" y="549" type="line"/>
    </contour>
    <contour>
      <point x="388" y="580" type="line"/>
      <point x="479" y="580" type="line"/>
      <point x="479" y="600" type="line"/>
      <point x="388" y="600" type="line"/>
    </contour>
    <contour>
      <point x="254" y="65" type="line"/>
      <point x="242" y="50" type="line"/>
      <point x="251" y="0" type="line"/>
      <point x="265" y="15" type="line"/>
    </contour>
    <contour>
      <point x="249" y="66" type="line"/>
      <point x="171" y="16" type="line"/>
      <point x="177" y="0" type="line"/>
      <point x="256" y="51" type="line"/>
    </contour>
    <contour>
      <point x="263" y="20" type="line"/>
      <point x="172" y="20" type="line"/>
      <point x="172" y="0" type="line"/>
      <point x="263" y="0" type="line"/>
    </contour>
    <contour>
      <point x="317" y="258" type="line"/>
      <point x="335" y="258" type="line"/>
      <point x="443" y="552" type="line"/>
      <point x="428" y="558" type="line"/>
    </contour>
    <contour>
      <point x="22" y="174" type="line"/>
      <point x="22" y="265" type="line"/>
      <point x="5" y="265" type="line"/>
      <point x="5" y="174" type="line"/>
    </contour>
    <contour>
      <point x="80" y="211" type="line"/>
      <point x="121" y="211" type="line"/>
      <point x="127" y="228" type="line"/>
      <point x="80" y="228" type="line"/>
    </contour>
    <contour>
      <point x="5" y="248" type="line"/>
      <point x="133" y="248" type="line"/>
      <point x="139" y="265" type="line"/>
      <point x="5" y="265" type="line"/>
    </contour>
    <contour>
      <point x="98" y="225" type="line"/>
      <point x="21" y="265" type="line"/>
      <point x="7" y="255" type="line"/>
      <point x="85" y="215" type="line"/>
    </contour>
    <contour>
      <point x="5" y="191" type="line"/>
      <point x="5" y="174" type="line"/>
      <point x="106" y="174" type="line"/>
      <point x="112" y="191" type="line"/>
    </contour>
    <contour>
      <point x="98" y="214" type="line"/>
      <point x="85" y="224" type="line"/>
      <point x="7" y="184" type="line"/>
      <point x="21" y="174" type="line"/>
    </contour>
    <contour>
      <point x="401" y="265" type="line"/>
      <point x="401" y="174" type="line"/>
      <point x="418" y="174" type="line"/>
      <point x="418" y="265" type="line"/>
    </contour>
    <contour>
      <point x="201" y="211" type="line"/>
      <point x="390" y="211" type="line"/>
      <point x="390" y="228" type="line"/>
      <point x="207" y="228" type="line"/>
    </contour>
    <contour>
      <point x="379" y="214" type="line"/>
      <point x="402" y="174" type="line"/>
      <point x="416" y="184" type="line"/>
      <point x="392" y="224" type="line"/>
    </contour>
    <contour>
      <point x="379" y="225" type="line"/>
      <point x="392" y="215" type="line"/>
      <point x="416" y="255" type="line"/>
      <point x="402" y="265" type="line"/>
    </contour>
    <contour>
      <point x="418" y="265" type="line"/>
      <point x="221" y="265" type="line"/>
      <point x="215" y="248" type="line"/>
      <point x="418" y="248" type="line"/>
    </contour>
    <contour>
      <point x="418" y="191" type="line"/>
      <point x="191" y="191" type="line"/>
      <point x="185" y="174" type="line"/>
      <point x="418" y="174" type="line"/>
    </contour>
    <contour>
      <point x="458" y="426" type="line"/>
      <point x="458" y="335" type="line"/>
      <point x="475" y="335" type="line"/>
      <point x="475" y="426" type="line"/>
    </contour>
    <contour>
      <point x="444" y="389" type="line"/>
      <point x="399" y="389" type="line"/>
      <point x="393" y="372" type="line"/>
      <point x="444" y="372" type="line"/>
    </contour>
    <contour>
      <point x="475" y="352" type="line"/>
      <point x="387" y="352" type="line"/>
      <point x="381" y="335" type="line"/>
      <point x="475" y="335" type="line"/>
    </contour>
    <contour>
      <point x="436" y="375" type="line"/>
      <point x="459" y="335" type="line"/>
      <point x="473" y="345" type="line"/>
      <point x="449" y="385" type="line"/>
    </contour>
    <contour>
      <point x="475" y="409" type="line"/>
      <point x="475" y="426" type="line"/>
      <point x="414" y="426" type="line"/>
      <point x="408" y="409" type="line"/>
    </contour>
    <contour>
      <point x="436" y="386" type="line"/>
      <point x="449" y="376" type="line"/>
      <point x="473" y="416" type="line"/>
      <point x="459" y="426" type="line"/>
    </contour>
    <contour>
      <point x="79" y="335" type="line"/>
      <point x="79" y="426" type="line"/>
      <point x="62" y="426" type="line"/>
      <point x="62" y="335" type="line"/>
    </contour>
    <contour>
      <point x="319" y="389" type="line"/>
      <point x="137" y="389" type="line"/>
      <point x="137" y="372" type="line"/>
      <point x="313" y="372" type="line"/>
    </contour>
    <contour>
      <point x="335" y="426" type="line"/>
      <point x="62" y="426" type="line"/>
      <point x="62" y="409" type="line"/>
      <point x="329" y="409" type="line"/>
    </contour>
    <contour>
      <point x="155" y="386" type="line"/>
      <point x="78" y="426" type="line"/>
      <point x="64" y="416" type="line"/>
      <point x="142" y="376" type="line"/>
    </contour>
    <contour>
      <point x="305" y="352" type="line"/>
      <point x="62" y="352" type="line"/>
      <point x="62" y="335" type="line"/>
      <point x="299" y="335" type="line"/>
    </contour>
    <contour>
      <point x="155" y="375" type="line"/>
      <point x="142" y="385" type="line"/>
      <point x="64" y="345" type="line"/>
      <point x="78" y="335" type="line"/>
    </contour>
    <contour>
      <point x="180" y="344" type="line"/>
      <point x="162" y="344" type="line"/>
      <point x="34" y="0" type="line"/>
      <point x="52" y="0" type="line"/>
    </contour>
    <contour>
      <point x="236" y="344" type="line"/>
      <point x="218" y="344" type="line"/>
      <point x="109" y="50" type="line"/>
      <point x="124" y="39" type="line"/>
    </contour>
    <contour>
      <point x="261" y="344" type="line"/>
      <point x="243" y="344" type="line"/>
      <point x="115" y="0" type="line"/>
      <point x="133" y="0" type="line"/>
    </contour>
    <contour>
      <point x="248" y="178" type="line"/>
      <point x="230" y="178" type="line"/>
      <point x="164" y="0" type="line"/>
      <point x="182" y="0" type="line"/>
    </contour>
    <contour>
      <point x="305" y="178" type="line"/>
      <point x="287" y="178" type="line"/>
      <point x="239" y="50" type="line"/>
      <point x="254" y="39" type="line"/>
    </contour>
    <contour>
      <point x="329" y="178" type="line"/>
      <point x="311" y="178" type="line"/>
      <point x="245" y="0" type="line"/>
      <point x="263" y="0" type="line"/>
    </contour>
  </outline>
</glyph>
<glyph name="ampersand" format="2">
  <advance width="622"/>
  <unicode hex="0026"/>
  <outline>
    <contour>
      <point x="373" y="0" type="line"/>
      <point x="605" y="0" type="line"/>
      <point x="605" y="20" type="line"/>
      <point x="373" y="20" type="line"/>
    </contour>
    <contour>
      <point x="515" y="89" type="line"/>
      <point x="572" y="89" type="line"/>
      <point x="572" y="109" type="line"/>
      <point x="531" y="109" type="line"/>
    </contour>
    <contour>
      <point x="537" y="160" type="line"/>
      <point x="602" y="160" type="line"/>
      <point x="602" y="180" type="line"/>
      <point x="537" y="180" type="line"/>
    </contour>
    <contour>
      <point x="589" y="7" type="line"/>
      <point x="603" y="20" type="line"/>
      <point x="575" y="107" type="line"/>
      <point x="556" y="95" type="line"/>
    </contour>
    <contour>
      <point x="592" y="0" type="line"/>
      <point x="612" y="0" type="line"/>
      <point x="612" y="180" type="line"/>
      <point x="592" y="180" type="line"/>
    </contour>
    <contour>
      <point x="589" y="177" type="line"/>
      <point x="556" y="99" type="line"/>
      <point x="575" y="87" type="line"/>
      <point x="603" y="164" type="line"/>
    </contour>
    <contour>
      <point x="384" y="2" type="line"/>
      <point x="541" y="98" type="line"/>
      <point x="524" y="108" type="line"/>
      <point x="369" y="15" type="line"/>
    </contour>
    <contour>
      <point x="531" y="180" type="line"/>
      <point x="527" y="112" type="line"/>
      <point x="545" y="99" type="line"/>
      <point x="547" y="170" type="line"/>
    </contour>
    <contour>
      <point x="323" y="408" type="line"/>
      <point x="339" y="420" type="line"/>
      <point x="311" y="465" type="line"/>
      <point x="295" y="453" type="line"/>
    </contour>
    <contour>
      <point x="352" y="437" type="line"/>
      <point x="368" y="449" type="line"/>
      <point x="349" y="485" type="line"/>
      <point x="333" y="473" type="line"/>
    </contour>
    <contour>
      <point x="170" y="306" type="line"/>
      <point x="186" y="317" type="line"/>
      <point x="121" y="415" type="line"/>
      <point x="105" y="403" type="line"/>
    </contour>
    <contour>
      <point x="513" y="372" type="line"/>
      <point x="261" y="181" type="line"/>
      <point x="272" y="165" type="line"/>
      <point x="520" y="353" type="line"/>
    </contour>
    <contour>
      <point x="532" y="304" type="line"/>
      <point x="295" y="126" type="line"/>
      <point x="306" y="110" type="line"/>
      <point x="546" y="291" type="line"/>
    </contour>
    <contour>
      <point x="571" y="294" type="line"/>
      <point x="201" y="16" type="line"/>
      <point x="212" y="0" type="line"/>
      <point x="589" y="287" type="line"/>
    </contour>
    <contour>
      <point x="227" y="110" type="line"/>
      <point x="306" y="110" type="line"/>
      <point x="306" y="130" type="line"/>
      <point x="227" y="130" type="line"/>
    </contour>
    <contour>
      <point x="85" y="0" type="line"/>
      <point x="212" y="0" type="line"/>
      <point x="212" y="20" type="line"/>
      <point x="85" y="20" type="line"/>
    </contour>
    <contour>
      <point x="431" y="442" type="line"/>
      <point x="179" y="263" type="line"/>
      <point x="194" y="252" type="line"/>
      <point x="444" y="433" type="line"/>
    </contour>
    <contour>
      <point x="457" y="432" type="line"/>
      <point x="198" y="244" type="line"/>
      <point x="220" y="239" type="line"/>
      <point x="471" y="419" type="line"/>
    </contour>
    <contour>
      <point x="384" y="463" type="line"/>
      <point x="49" y="224" type="line"/>
      <point x="58" y="209" type="line"/>
      <point x="396" y="451" type="line"/>
    </contour>
    <contour>
      <point x="25" y="95" type="line"/>
      <point x="10" y="81" type="line"/>
      <point x="85" y="0" type="line"/>
      <point x="99" y="14" type="line"/>
    </contour>
    <contour>
      <point x="169" y="184" type="line"/>
      <point x="154" y="169" type="line"/>
      <point x="227" y="109" type="line"/>
      <point x="241" y="124" type="line"/>
    </contour>
    <contour>
      <point x="94" y="5" type="line"/>
      <point x="251" y="118" type="line"/>
      <point x="230" y="125" type="line"/>
      <point x="80" y="18" type="line"/>
    </contour>
    <contour>
      <point x="230" y="18" type="line"/>
      <point x="316" y="121" type="line"/>
      <point x="294" y="122" type="line"/>
      <point x="207" y="11" type="line"/>
    </contour>
    <contour>
      <point x="237" y="119" type="line"/>
      <point x="249" y="155" type="line"/>
      <point x="233" y="167" type="line"/>
      <point x="223" y="132" type="line"/>
    </contour>
    <contour>
      <point x="234" y="147" type="line"/>
      <point x="272" y="165" type="line"/>
      <point x="272" y="185" type="line"/>
      <point x="234" y="167" type="line"/>
    </contour>
    <contour>
      <point x="200" y="200" type="line"/>
      <point x="186" y="187" type="line"/>
      <point x="237" y="145" type="line"/>
      <point x="250" y="158" type="line"/>
    </contour>
    <contour>
      <point x="186" y="187" type="line"/>
      <point x="203" y="179" type="line"/>
      <point x="219" y="239" type="line"/>
      <point x="200" y="244" type="line"/>
    </contour>
    <contour>
      <point x="313" y="128" type="line"/>
      <point x="249" y="164" type="line"/>
      <point x="240" y="147" type="line"/>
      <point x="304" y="112" type="line"/>
    </contour>
    <contour>
      <point x="527" y="292" type="line"/>
      <point x="544" y="295" type="line"/>
      <point x="521" y="349" type="line"/>
      <point x="503" y="356" type="line"/>
    </contour>
    <contour>
      <point x="535" y="303" type="line"/>
      <point x="533" y="286" type="line"/>
      <point x="571" y="274" type="line"/>
      <point x="574" y="290" type="line"/>
    </contour>
    <contour>
      <point x="575" y="278" type="line"/>
      <point x="589" y="287" type="line"/>
      <point x="513" y="372" type="line"/>
      <point x="503" y="360" type="line"/>
    </contour>
    <contour>
      <point x="10" y="81" type="line"/>
      <point x="30" y="81" type="line"/>
      <point x="30" y="136" type="line"/>
      <point x="10" y="136" type="line"/>
    </contour>
    <contour>
      <point x="28" y="128" type="line"/>
      <point x="67" y="217" type="line"/>
      <point x="49" y="224" type="line"/>
      <point x="10" y="136" type="line"/>
    </contour>
    <contour>
      <point x="262" y="168" type="line"/>
      <point x="278" y="179" type="line"/>
      <point x="222" y="245" type="line"/>
      <point x="206" y="233" type="line"/>
    </contour>
    <contour>
      <point x="473" y="213" type="line"/>
      <point x="457" y="202" type="line"/>
      <point x="529" y="94" type="line"/>
      <point x="543" y="107" type="line"/>
    </contour>
    <contour>
      <point x="330" y="101" type="line"/>
      <point x="315" y="89" type="line"/>
      <point x="373" y="0" type="line"/>
      <point x="387" y="13" type="line"/>
    </contour>
    <contour>
      <point x="507" y="235" type="line"/>
      <point x="492" y="223" type="line"/>
      <point x="536" y="160" type="line"/>
      <point x="552" y="173" type="line"/>
    </contour>
    <contour>
      <point x="380" y="357" type="line"/>
      <point x="363" y="345" type="line"/>
      <point x="412" y="274" type="line"/>
      <point x="429" y="285" type="line"/>
    </contour>
    <contour>
      <point x="408" y="385" type="line"/>
      <point x="392" y="374" type="line"/>
      <point x="438" y="306" type="line"/>
      <point x="453" y="318" type="line"/>
    </contour>
    <contour>
      <point x="314" y="510" type="line"/>
      <point x="295" y="508" type="line"/>
      <point x="295" y="453" type="line"/>
      <point x="314" y="457" type="line"/>
    </contour>
    <contour>
      <point x="175" y="165" type="line"/>
      <point x="199" y="260" type="line"/>
      <point x="179" y="263" type="line"/>
      <point x="154" y="170" type="line"/>
    </contour>
    <contour>
      <point x="24" y="83" type="line"/>
      <point x="176" y="172" type="line"/>
      <point x="172" y="195" type="line"/>
      <point x="16" y="101" type="line"/>
    </contour>
    <contour>
      <point x="47" y="210" type="line"/>
      <point x="184" y="250" type="line"/>
      <point x="196" y="272" type="line"/>
      <point x="62" y="231" type="line"/>
    </contour>
    <contour>
      <point x="338" y="491" type="line"/>
      <point x="301" y="465" type="line"/>
      <point x="310" y="449" type="line"/>
      <point x="345" y="477" type="line"/>
    </contour>
    <contour>
      <point x="105" y="403" type="line"/>
      <point x="125" y="403" type="line"/>
      <point x="125" y="505" type="line"/>
      <point x="105" y="508" type="line"/>
    </contour>
    <contour>
      <point x="451" y="419" type="line"/>
      <point x="471" y="419" type="line"/>
      <point x="471" y="531" type="line"/>
      <point x="451" y="531" type="line"/>
    </contour>
    <contour>
      <point x="329" y="478" type="line"/>
      <point x="349" y="478" type="line"/>
      <point x="349" y="505" type="line"/>
      <point x="329" y="505" type="line"/>
    </contour>
    <contour>
      <point x="377" y="453" type="line"/>
      <point x="396" y="451" type="line"/>
      <point x="396" y="484" type="line"/>
      <point x="377" y="490" type="line"/>
    </contour>
    <contour>
      <point x="433" y="450" type="line"/>
      <point x="426" y="432" type="line"/>
      <point x="461" y="419" type="line"/>
      <point x="466" y="437" type="line"/>
    </contour>
    <contour>
      <point x="425" y="437" type="line"/>
      <point x="444" y="435" type="line"/>
      <point x="444" y="523" type="line"/>
      <point x="425" y="523" type="line"/>
    </contour>
    <contour>
      <point x="198" y="200" type="line"/>
      <point x="165" y="186" type="line"/>
      <point x="166" y="167" type="line"/>
      <point x="205" y="186" type="line"/>
    </contour>
    <contour>
      <point x="184" y="250" type="line"/>
      <point x="212" y="230" type="line"/>
      <point x="223" y="247" type="line"/>
      <point x="192" y="266" type="line"/>
    </contour>
    <contour>
      <point x="295" y="508" type="line"/>
      <point x="311" y="499" type="line"/>
      <point x="363" y="553" type="line"/>
      <point x="351" y="567" type="line"/>
    </contour>
    <contour>
      <point x="117" y="398" type="line"/>
      <point x="310" y="448" type="line"/>
      <point x="303" y="465" type="line"/>
      <point x="115" y="418" type="line"/>
    </contour>
    <contour>
      <point x="112" y="498" type="line"/>
      <point x="307" y="499" type="line"/>
      <point x="313" y="516" type="line"/>
      <point x="118" y="515" type="line"/>
    </contour>
    <contour>
      <point x="105" y="508" type="line"/>
      <point x="123" y="499" type="line"/>
      <point x="237" y="586" type="line"/>
      <point x="222" y="600" type="line"/>
    </contour>
    <contour>
      <point x="350" y="547" type="line"/>
      <point x="398" y="547" type="line"/>
      <point x="399" y="567" type="line"/>
      <point x="351" y="567" type="line"/>
    </contour>
    <contour>
      <point x="223" y="580" type="line"/>
      <point x="398" y="580" type="line"/>
      <point x="396" y="600" type="line"/>
      <point x="222" y="600" type="line"/>
    </contour>
    <contour>
      <point x="353" y="523" type="line"/>
      <point x="363" y="510" type="line"/>
      <point x="406" y="549" type="line"/>
      <point x="387" y="553" type="line"/>
    </contour>
    <contour>
      <point x="471" y="531" type="line"/>
      <point x="396" y="600" type="line"/>
      <point x="384" y="587" type="line"/>
      <point x="453" y="522" type="line"/>
    </contour>
    <contour>
      <point x="444" y="523" type="line"/>
      <point x="396" y="566" type="line"/>
      <point x="387" y="552" type="line"/>
      <point x="429" y="511" type="line"/>
    </contour>
    <contour>
      <point x="396" y="484" type="line"/>
      <point x="367" y="526" type="line"/>
      <point x="354" y="514" type="line"/>
      <point x="384" y="471" type="line"/>
    </contour>
    <contour>
      <point x="329" y="505" type="line"/>
      <point x="341" y="492" type="line"/>
      <point x="361" y="514" type="line"/>
      <point x="349" y="526" type="line"/>
    </contour>
    <contour>
      <point x="349" y="508" type="line"/>
      <point x="366" y="508" type="line"/>
      <point x="367" y="526" type="line"/>
      <point x="349" y="526" type="line"/>
    </contour>
    <contour>
      <point x="214" y="584" type="line"/>
      <point x="350" y="550" type="line"/>
      <point x="370" y="563" type="line"/>
      <point x="238" y="595" type="line"/>
    </contour>
    <contour>
      <point x="406" y="588" type="line"/>
      <point x="390" y="598" type="line"/>
      <point x="390" y="562" type="line"/>
      <point x="406" y="552" type="line"/>
    </contour>
  </outline>
</glyph>
<glyph name="hyphen" format="2">
  <advance width="241"/>
  <unicode hex="002D"/>
  <outline>
    <contour>
      <point x="15" y="224" type="line"/>
      <point x="220" y="224" type="line"/>
      <point x="220" y="242" type="line"/>
      <point x="15" y="242" type="line"/>
    </contour>
    <contour>
      <point x="29" y="224" type="line"/>
      <point x="147" y="300" type="line"/>
      <point x="131" y="313" type="line"/>
      <point x="15" y="238" type="line"/>
    </contour>
    <contour>
      <point x="212" y="224" type="line"/>
      <point x="226" y="238" type="line"/>
      <point x="189" y="314" type="line"/>
      <point x="174" y="300" type="line"/>
    </contour>
    <contour>
      <point x="15" y="224" type="line"/>
      <point x="35" y="224" type="line"/>
      <point x="35" y="389" type="line"/>
      <point x="15" y="389" type="line"/>
    </contour>
    <contour>
      <point x="131" y="296" type="line"/>
      <point x="194" y="296" type="line"/>
      <point x="194" y="319" type="line"/>
      <point x="131" y="319" type="line"/>
    </contour>
    <contour>
      <point x="206" y="224" type="line"/>
      <point x="226" y="224" type="line"/>
      <point x="226" y="389" type="line"/>
      <point x="206" y="389" type="line"/>
    </contour>
    <contour>
      <point x="132" y="300" type="line"/>
      <point x="147" y="314" type="line"/>
      <point x="29" y="389" type="line"/>
      <point x="15" y="375" type="line"/>
    </contour>
    <contour>
      <point x="18" y="371" type="line"/>
      <point x="220" y="371" type="line"/>
      <point x="220" y="389" type="line"/>
      <point x="18" y="389" type="line"/>
    </contour>
    <contour>
      <point x="189" y="300" type="line"/>
      <point x="225" y="375" type="line"/>
      <point x="211" y="389" type="line"/>
      <point x="174" y="314" type="line"/>
    </contour>
  </outline>
</glyph>
<glyph name="two" format="2">
  <advance width="456"/>
  <unicode hex="0032"/>
  <outline>
    <contour>
      <point x="184" y="236" type="line"/>
      <point x="394" y="399" type="line"/>
      <point x="384" y="414" type="line"/>
      <point x="172" y="249" type="line"/>
    </contour>
    <contour>
      <point x="21" y="-1" type="line"/>
      <point x="41" y="-1" type="line"/>
      <point x="41" y="149" type="line"/>
      <point x="21" y="149" type="line"/>
    </contour>
    <contour>
      <point x="49" y="7" type="line"/>
      <point x="165" y="106" type="line"/>
      <point x="149" y="118" type="line"/>
      <point x="31" y="17" type="line"/>
    </contour>
    <contour>
      <point x="150" y="100" type="line"/>
      <point x="162" y="115" type="line"/>
      <point x="38" y="159" type="line"/>
      <point x="26" y="142" type="line"/>
    </contour>
    <contour>
      <point x="26" y="-1" type="line"/>
      <point x="446" y="-1" type="line"/>
      <point x="446" y="19" type="line"/>
      <point x="26" y="19" type="line"/>
    </contour>
    <contour>
      <point x="40" y="141" type="line"/>
      <point x="110" y="274" type="line"/>
      <point x="88" y="279" type="line"/>
      <point x="21" y="149" type="line"/>
    </contour>
    <contour>
      <point x="144" y="106" type="line"/>
      <point x="165" y="106" type="line"/>
      <point x="189" y="238" type="line"/>
      <point x="171" y="246" type="line"/>
    </contour>
    <contour>
      <point x="163" y="105" type="line"/>
      <point x="224" y="203" type="line"/>
      <point x="211" y="217" type="line"/>
      <point x="153" y="120" type="line"/>
    </contour>
    <contour>
      <point x="150" y="100" type="line"/>
      <point x="394" y="100" type="line"/>
      <point x="394" y="120" type="line"/>
      <point x="150" y="120" type="line"/>
    </contour>
    <contour>
      <point x="179" y="235" type="line"/>
      <point x="185" y="255" type="line"/>
      <point x="102" y="283" type="line"/>
      <point x="90" y="266" type="line"/>
    </contour>
    <contour>
      <point x="209" y="200" type="line"/>
      <point x="226" y="214" type="line"/>
      <point x="184" y="254" type="line"/>
      <point x="178" y="236" type="line"/>
    </contour>
    <contour>
      <point x="10" y="381" type="line"/>
      <point x="28" y="391" type="line"/>
      <point x="28" y="493" type="line"/>
      <point x="10" y="496" type="line"/>
    </contour>
    <contour>
      <point x="422" y="13" type="line"/>
      <point x="435" y="25" type="line"/>
      <point x="399" y="119" type="line"/>
      <point x="385" y="106" type="line"/>
    </contour>
    <contour>
      <point x="10" y="381" type="line"/>
      <point x="184" y="381" type="line"/>
      <point x="184" y="401" type="line"/>
      <point x="10" y="401" type="line"/>
    </contour>
    <contour>
      <point x="104" y="268" type="line"/>
      <point x="253" y="393" type="line"/>
      <point x="244" y="409" type="line"/>
      <point x="88" y="279" type="line"/>
    </contour>
    <contour>
      <point x="219" y="202" type="line"/>
      <point x="336" y="253" type="line"/>
      <point x="331" y="270" type="line"/>
      <point x="209" y="217" type="line"/>
    </contour>
    <contour>
      <point x="19" y="481" type="line"/>
      <point x="135" y="463" type="line"/>
      <point x="170" y="428" type="line"/>
      <point x="183" y="440" type="line"/>
      <point x="148" y="478" type="line"/>
      <point x="26" y="497" type="line"/>
    </contour>
    <contour>
      <point x="211" y="198" type="line"/>
      <point x="441" y="198" type="line"/>
      <point x="441" y="215" type="line"/>
      <point x="211" y="215" type="line"/>
    </contour>
    <contour>
      <point x="400" y="101" type="line"/>
      <point x="443" y="205" type="line"/>
      <point x="428" y="215" type="line"/>
      <point x="386" y="112" type="line"/>
    </contour>
    <contour>
      <point x="426" y="10" type="line"/>
      <point x="446" y="10" type="line"/>
      <point x="446" y="215" type="line"/>
      <point x="426" y="215" type="line"/>
    </contour>
    <contour>
      <point x="184" y="381" type="line"/>
      <point x="184" y="444" type="line"/>
      <point x="166" y="444" type="line"/>
      <point x="166" y="391" type="line"/>
    </contour>
    <contour>
      <point x="20" y="478" type="line"/>
      <point x="122" y="585" type="line"/>
      <point x="109" y="600" type="line"/>
      <point x="10" y="496" type="line"/>
    </contour>
    <contour>
      <point x="150" y="462" type="line"/>
      <point x="226" y="526" type="line"/>
      <point x="214" y="542" type="line"/>
      <point x="136" y="477" type="line"/>
    </contour>
    <contour>
      <point x="177" y="429" type="line"/>
      <point x="212" y="452" type="line"/>
      <point x="201" y="467" type="line"/>
      <point x="166" y="444" type="line"/>
    </contour>
    <contour>
      <point x="201" y="446" type="line"/>
      <point x="225" y="446" type="line"/>
      <point x="225" y="467" type="line"/>
      <point x="201" y="467" type="line"/>
    </contour>
    <contour>
      <point x="189" y="446" type="line"/>
      <point x="210" y="453" type="line"/>
      <point x="230" y="535" type="line"/>
      <point x="208" y="526" type="line"/>
    </contour>
    <contour>
      <point x="234" y="394" type="line"/>
      <point x="252" y="394" type="line"/>
      <point x="252" y="448" type="line"/>
      <point x="234" y="448" type="line"/>
    </contour>
    <contour>
      <point x="320" y="261" type="line"/>
      <point x="338" y="261" type="line"/>
      <point x="401" y="407" type="line"/>
      <point x="383" y="407" type="line"/>
    </contour>
    <contour>
      <point x="336" y="253" type="line"/>
      <point x="441" y="351" type="line"/>
      <point x="430" y="363" type="line"/>
      <point x="323" y="264" type="line"/>
    </contour>
    <contour>
      <point x="240" y="432" type="line"/>
      <point x="251" y="447" type="line"/>
      <point x="225" y="467" type="line"/>
      <point x="215" y="452" type="line"/>
    </contour>
    <contour>
      <point x="213" y="526" type="line"/>
      <point x="230" y="536" type="line"/>
      <point x="121" y="595" type="line"/>
      <point x="104" y="584" type="line"/>
    </contour>
    <contour>
      <point x="238" y="389" type="line"/>
      <point x="393" y="400" type="line"/>
      <point x="393" y="418" type="line"/>
      <point x="238" y="408" type="line"/>
    </contour>
    <contour>
      <point x="231" y="451" type="line"/>
      <point x="343" y="532" type="line"/>
      <point x="324" y="539" type="line"/>
      <point x="216" y="463" type="line"/>
    </contour>
    <contour>
      <point x="212" y="524" type="line"/>
      <point x="333" y="524" type="line"/>
      <point x="335" y="544" type="line"/>
      <point x="212" y="544" type="line"/>
    </contour>
    <contour>
      <point x="236" y="429" type="line"/>
      <point x="395" y="473" type="line"/>
      <point x="391" y="490" type="line"/>
      <point x="233" y="446" type="line"/>
    </contour>
    <contour>
      <point x="428" y="349" type="line"/>
      <point x="434" y="366" type="line"/>
      <point x="394" y="419" type="line"/>
      <point x="388" y="401" type="line"/>
    </contour>
    <contour>
      <point x="385" y="404" type="line"/>
      <point x="403" y="404" type="line"/>
      <point x="403" y="485" type="line"/>
      <point x="385" y="485" type="line"/>
    </contour>
    <contour>
      <point x="112" y="580" type="line"/>
      <point x="335" y="580" type="line"/>
      <point x="335" y="600" type="line"/>
      <point x="109" y="600" type="line"/>
    </contour>
    <contour>
      <point x="395" y="470" type="line"/>
      <point x="407" y="485" type="line"/>
      <point x="335" y="544" type="line"/>
      <point x="323" y="529" type="line"/>
    </contour>
    <contour>
      <point x="338" y="526" type="line"/>
      <point x="342" y="582" type="line"/>
      <point x="328" y="595" type="line"/>
      <point x="323" y="539" type="line"/>
    </contour>
    <contour>
      <point x="423" y="351" type="line"/>
      <point x="441" y="351" type="line"/>
      <point x="441" y="515" type="line"/>
      <point x="423" y="515" type="line"/>
    </contour>
    <contour>
      <point x="394" y="473" type="line"/>
      <point x="435" y="499" type="line"/>
      <point x="431" y="517" type="line"/>
      <point x="391" y="491" type="line"/>
    </contour>
    <contour>
      <point x="430" y="499" type="line"/>
      <point x="441" y="515" type="line"/>
      <point x="335" y="600" type="line"/>
      <point x="323" y="584" type="line"/>
    </contour>
  </outline>
</glyph>
<glyph name="three" format="2">
  <advance width="458"/>
  <unicode hex="0033"/>
  <outline>
    <contour>
      <point x="448" y="241" type="line"/>
      <point x="425" y="241" type="line"/>
      <point x="425" y="114" type="line"/>
      <point x="448" y="114" type="line"/>
    </contour>
    <contour>
      <point x="381" y="227" type="line"/>
      <point x="363" y="227" type="line"/>
      <point x="363" y="144" type="line"/>
      <point x="381" y="144" type="line"/>
    </contour>
    <contour>
      <point x="245" y="185" type="line"/>
      <point x="239" y="168" type="line"/>
      <point x="368" y="141" type="line"/>
      <point x="372" y="159" type="line"/>
    </contour>
    <contour>
      <point x="437" y="130" type="line"/>
      <point x="300" y="15" type="line"/>
      <point x="312" y="-1" type="line"/>
      <point x="448" y="114" type="line"/>
    </contour>
    <contour>
      <point x="372" y="159" type="line"/>
      <point x="310" y="90" type="line"/>
      <point x="322" y="75" type="line"/>
      <point x="384" y="144" type="line"/>
    </contour>
    <contour>
      <point x="239" y="187" type="line"/>
      <point x="219" y="167" type="line"/>
      <point x="232" y="152" type="line"/>
      <point x="250" y="172" type="line"/>
    </contour>
    <contour>
      <point x="232" y="173" type="line"/>
      <point x="195" y="173" type="line"/>
      <point x="195" y="152" type="line"/>
      <point x="232" y="152" type="line"/>
    </contour>
    <contour>
      <point x="194" y="203" type="line"/>
      <point x="174" y="203" type="line"/>
      <point x="174" y="175" type="line"/>
      <point x="194" y="175" type="line"/>
    </contour>
    <contour>
      <point x="183" y="190" type="line"/>
      <point x="172" y="175" type="line"/>
      <point x="196" y="153" type="line"/>
      <point x="207" y="169" type="line"/>
    </contour>
    <contour>
      <point x="208" y="159" type="line"/>
      <point x="186" y="165" type="line"/>
      <point x="214" y="91" type="line"/>
      <point x="236" y="84" type="line"/>
    </contour>
    <contour>
      <point x="320" y="95" type="line"/>
      <point x="220" y="95" type="line"/>
      <point x="220" y="75" type="line"/>
      <point x="322" y="75" type="line"/>
    </contour>
    <contour>
      <point x="194" y="218" type="line"/>
      <point x="10" y="218" type="line"/>
      <point x="10" y="198" type="line"/>
      <point x="194" y="198" type="line"/>
    </contour>
    <contour>
      <point x="157" y="157" type="line"/>
      <point x="146" y="142" type="line"/>
      <point x="220" y="75" type="line"/>
      <point x="232" y="91" type="line"/>
    </contour>
    <contour>
      <point x="312" y="19" type="line"/>
      <point x="142" y="19" type="line"/>
      <point x="139" y="-1" type="line"/>
      <point x="312" y="-1" type="line"/>
    </contour>
    <contour>
      <point x="163" y="143" type="line"/>
      <point x="147" y="156" type="line"/>
      <point x="17" y="140" type="line"/>
      <point x="22" y="124" type="line"/>
    </contour>
    <contour>
      <point x="215" y="89" type="line"/>
      <point x="133" y="10" type="line"/>
      <point x="151" y="4" type="line"/>
      <point x="234" y="83" type="line"/>
    </contour>
    <contour>
      <point x="30" y="198" type="line"/>
      <point x="10" y="198" type="line"/>
      <point x="10" y="123" type="line"/>
      <point x="30" y="126" type="line"/>
    </contour>
    <contour>
      <point x="20" y="141" type="line"/>
      <point x="10" y="123" type="line"/>
      <point x="139" y="-1" type="line"/>
      <point x="152" y="14" type="line"/>
    </contour>
    <contour>
      <point x="147" y="156" type="line"/>
      <point x="155" y="140" type="line"/>
      <point x="187" y="173" type="line"/>
      <point x="180" y="189" type="line"/>
    </contour>
    <contour>
      <point x="373" y="159" type="line"/>
      <point x="370" y="139" type="line"/>
      <point x="434" y="109" type="line"/>
      <point x="438" y="129" type="line"/>
    </contour>
    <contour>
      <point x="233" y="167" type="line"/>
      <point x="214" y="159" type="line"/>
      <point x="313" y="78" type="line"/>
      <point x="324" y="92" type="line"/>
    </contour>
    <contour>
      <point x="325" y="93" type="line"/>
      <point x="308" y="86" type="line"/>
      <point x="300" y="7" type="line"/>
      <point x="316" y="16" type="line"/>
    </contour>
    <contour>
      <point x="241" y="248" type="line"/>
      <point x="370" y="211" type="line"/>
      <point x="370" y="231" type="line"/>
      <point x="241" y="268" type="line"/>
    </contour>
    <contour>
      <point x="360" y="227" type="line"/>
      <point x="381" y="227" type="line"/>
      <point x="358" y="309" type="line"/>
      <point x="338" y="306" type="line"/>
    </contour>
    <contour>
      <point x="351" y="322" type="line"/>
      <point x="241" y="322" type="line"/>
      <point x="241" y="302" type="line"/>
      <point x="351" y="302" type="line"/>
    </contour>
    <contour>
      <point x="428" y="381" type="line"/>
      <point x="428" y="515" type="line"/>
      <point x="408" y="515" type="line"/>
      <point x="408" y="381" type="line"/>
    </contour>
    <contour>
      <point x="382" y="388" type="line"/>
      <point x="382" y="485" type="line"/>
      <point x="362" y="485" type="line"/>
      <point x="362" y="388" type="line"/>
    </contour>
    <contour>
      <point x="376" y="386" type="line"/>
      <point x="368" y="402" type="line"/>
      <point x="235" y="366" type="line"/>
      <point x="243" y="350" type="line"/>
    </contour>
    <contour>
      <point x="239" y="431" type="line"/>
      <point x="375" y="472" type="line"/>
      <point x="367" y="489" type="line"/>
      <point x="232" y="448" type="line"/>
    </contour>
    <contour>
      <point x="417" y="499" type="line"/>
      <point x="428" y="515" type="line"/>
      <point x="312" y="600" type="line"/>
      <point x="300" y="584" type="line"/>
    </contour>
    <contour>
      <point x="250" y="361" type="line"/>
      <point x="250" y="448" type="line"/>
      <point x="230" y="448" type="line"/>
      <point x="230" y="361" type="line"/>
    </contour>
    <contour>
      <point x="370" y="470" type="line"/>
      <point x="382" y="485" type="line"/>
      <point x="312" y="544" type="line"/>
      <point x="300" y="529" type="line"/>
    </contour>
    <contour>
      <point x="239" y="431" type="line"/>
      <point x="250" y="448" type="line"/>
      <point x="222" y="467" type="line"/>
      <point x="213" y="450" type="line"/>
    </contour>
    <contour>
      <point x="222" y="446" type="line"/>
      <point x="222" y="467" type="line"/>
      <point x="205" y="467" type="line"/>
      <point x="205" y="446" type="line"/>
    </contour>
    <contour>
      <point x="184" y="406" type="line"/>
      <point x="184" y="444" type="line"/>
      <point x="164" y="444" type="line"/>
      <point x="164" y="406" type="line"/>
    </contour>
    <contour>
      <point x="175" y="428" type="line"/>
      <point x="213" y="449" type="line"/>
      <point x="205" y="467" type="line"/>
      <point x="164" y="444" type="line"/>
    </contour>
    <contour>
      <point x="217" y="460" type="line"/>
      <point x="235" y="534" type="line"/>
      <point x="217" y="527" type="line"/>
      <point x="200" y="453" type="line"/>
    </contour>
    <contour>
      <point x="310" y="524" type="line"/>
      <point x="312" y="544" type="line"/>
      <point x="220" y="544" type="line"/>
      <point x="220" y="524" type="line"/>
    </contour>
    <contour>
      <point x="184" y="391" type="line"/>
      <point x="184" y="411" type="line"/>
      <point x="20" y="411" type="line"/>
      <point x="20" y="391" type="line"/>
    </contour>
    <contour>
      <point x="136" y="455" type="line"/>
      <point x="232" y="528" type="line"/>
      <point x="220" y="543" type="line"/>
      <point x="121" y="466" type="line"/>
    </contour>
    <contour>
      <point x="312" y="580" type="line"/>
      <point x="312" y="600" type="line"/>
      <point x="119" y="600" type="line"/>
      <point x="122" y="580" type="line"/>
    </contour>
    <contour>
      <point x="133" y="468" type="line"/>
      <point x="36" y="501" type="line"/>
      <point x="29" y="485" type="line"/>
      <point x="127" y="451" type="line"/>
    </contour>
    <contour>
      <point x="223" y="527" type="line"/>
      <point x="239" y="540" type="line"/>
      <point x="131" y="590" type="line"/>
      <point x="111" y="582" type="line"/>
    </contour>
    <contour>
      <point x="40" y="411" type="line"/>
      <point x="40" y="493" type="line"/>
      <point x="20" y="496" type="line"/>
      <point x="20" y="411" type="line"/>
    </contour>
    <contour>
      <point x="30" y="478" type="line"/>
      <point x="132" y="585" type="line"/>
      <point x="119" y="600" type="line"/>
      <point x="20" y="496" type="line"/>
    </contour>
    <contour>
      <point x="127" y="451" type="line"/>
      <point x="170" y="430" type="line"/>
      <point x="177" y="446" type="line"/>
      <point x="125" y="471" type="line"/>
    </contour>
    <contour>
      <point x="371" y="471" type="line"/>
      <point x="422" y="499" type="line"/>
      <point x="418" y="517" type="line"/>
      <point x="368" y="489" type="line"/>
    </contour>
    <contour>
      <point x="229" y="454" type="line"/>
      <point x="318" y="531" type="line"/>
      <point x="302" y="539" type="line"/>
      <point x="214" y="462" type="line"/>
    </contour>
    <contour>
      <point x="315" y="528" type="line"/>
      <point x="318" y="583" type="line"/>
      <point x="304" y="593" type="line"/>
      <point x="300" y="537" type="line"/>
    </contour>
    <contour>
      <point x="156" y="362" type="line"/>
      <point x="144" y="346" type="line"/>
      <point x="234" y="304" type="line"/>
      <point x="249" y="320" type="line"/>
    </contour>
    <contour>
      <point x="239" y="322" type="line"/>
      <point x="141" y="264" type="line"/>
      <point x="156" y="248" type="line"/>
      <point x="254" y="308" type="line"/>
    </contour>
    <contour>
      <point x="433" y="223" type="line"/>
      <point x="433" y="244" type="line"/>
      <point x="372" y="234" type="line"/>
      <point x="372" y="213" type="line"/>
    </contour>
    <contour>
      <point x="156" y="248" type="line"/>
      <point x="156" y="367" type="line"/>
      <point x="136" y="367" type="line"/>
      <point x="136" y="248" type="line"/>
    </contour>
    <contour>
      <point x="248" y="347" type="line"/>
      <point x="248" y="367" type="line"/>
      <point x="140" y="367" type="line"/>
      <point x="140" y="347" type="line"/>
    </contour>
    <contour>
      <point x="246" y="248" type="line"/>
      <point x="246" y="268" type="line"/>
      <point x="140" y="268" type="line"/>
      <point x="140" y="248" type="line"/>
    </contour>
    <contour>
      <point x="411" y="395" type="line"/>
      <point x="342" y="319" type="line"/>
      <point x="354" y="303" type="line"/>
      <point x="428" y="381" type="line"/>
    </contour>
    <contour>
      <point x="433" y="226" type="line"/>
      <point x="448" y="241" type="line"/>
      <point x="353" y="319" type="line"/>
      <point x="342" y="303" type="line"/>
    </contour>
    <contour>
      <point x="355" y="304" type="line"/>
      <point x="340" y="315" type="line"/>
      <point x="231" y="263" type="line"/>
      <point x="247" y="252" type="line"/>
    </contour>
    <contour>
      <point x="250" y="172" type="line"/>
      <point x="250" y="267" type="line"/>
      <point x="230" y="267" type="line"/>
      <point x="230" y="172" type="line"/>
    </contour>
    <contour>
      <point x="411" y="380" type="line"/>
      <point x="413" y="398" type="line"/>
      <point x="372" y="400" type="line"/>
      <point x="372" y="382" type="line"/>
    </contour>
    <contour>
      <point x="365" y="399" type="line"/>
      <point x="340" y="319" type="line"/>
      <point x="358" y="311" type="line"/>
      <point x="382" y="391" type="line"/>
    </contour>
    <contour>
      <point x="355" y="318" type="line"/>
      <point x="247" y="364" type="line"/>
      <point x="231" y="351" type="line"/>
      <point x="340" y="307" type="line"/>
    </contour>
  </outline>
</glyph>
<glyph name="four" format="2">
  <advance width="455"/>
  <unicode hex="0034"/>
  <outline>
    <contour>
      <point x="312" y="580" type="line"/>
      <point x="100" y="580" type="line"/>
    </contour>
    <contour>
      <point x="228" y="474" type="line"/>
      <point x="121" y="589" type="line"/>
      <point x="102" y="582" type="line"/>
      <point x="209" y="467" type="line"/>
    </contour>
    <contour>
      <point x="294" y="597" type="line"/>
      <point x="209" y="472" type="line"/>
      <point x="225" y="462" type="line"/>
      <point x="308" y="585" type="line"/>
    </contour>
    <contour>
      <point x="303" y="600" type="line"/>
      <point x="164" y="267" type="line"/>
      <point x="183" y="266" type="line"/>
      <point x="322" y="600" type="line"/>
    </contour>
    <contour>
      <point x="225" y="119" type="line"/>
      <point x="15" y="119" type="line"/>
      <point x="15" y="99" type="line"/>
      <point x="225" y="99" type="line"/>
    </contour>
    <contour>
      <point x="317" y="600" type="line"/>
      <point x="100" y="600" type="line"/>
      <point x="100" y="580" type="line"/>
      <point x="310" y="580" type="line"/>
    </contour>
    <contour>
      <point x="100" y="600" type="line"/>
      <point x="10" y="334" type="line"/>
      <point x="28" y="326" type="line"/>
      <point x="118" y="592" type="line"/>
    </contour>
    <contour>
      <point x="425" y="274" type="line"/>
      <point x="425" y="110" type="line"/>
      <point x="445" y="110" type="line"/>
      <point x="445" y="274" type="line"/>
    </contour>
    <contour>
      <point x="220" y="274" type="line"/>
      <point x="170" y="274" type="line"/>
      <point x="170" y="257" type="line"/>
      <point x="220" y="257" type="line"/>
    </contour>
    <contour>
      <point x="210" y="474" type="line"/>
      <point x="103" y="193" type="line"/>
      <point x="120" y="188" type="line"/>
      <point x="231" y="474" type="line"/>
    </contour>
    <contour>
      <point x="10" y="334" type="line"/>
      <point x="10" y="99" type="line"/>
      <point x="30" y="99" type="line"/>
      <point x="30" y="334" type="line"/>
    </contour>
    <contour>
      <point x="103" y="191" type="line"/>
      <point x="17" y="120" type="line"/>
      <point x="31" y="107" type="line"/>
      <point x="118" y="178" type="line"/>
    </contour>
    <contour>
      <point x="209" y="0" type="line"/>
      <point x="389" y="0" type="line"/>
      <point x="389" y="20" type="line"/>
      <point x="209" y="20" type="line"/>
    </contour>
    <contour>
      <point x="222" y="0" type="line"/>
      <point x="354" y="72" type="line"/>
      <point x="341" y="85" type="line"/>
      <point x="209" y="13" type="line"/>
    </contour>
    <contour>
      <point x="376" y="0" type="line"/>
      <point x="389" y="13" type="line"/>
      <point x="357" y="85" type="line"/>
      <point x="344" y="72" type="line"/>
    </contour>
    <contour>
      <point x="209" y="265" type="line"/>
      <point x="229" y="265" type="line"/>
      <point x="229" y="350" type="line"/>
      <point x="209" y="350" type="line"/>
    </contour>
    <contour>
      <point x="339" y="70" type="line"/>
      <point x="359" y="70" type="line"/>
      <point x="359" y="304" type="line"/>
      <point x="339" y="304" type="line"/>
    </contour>
    <contour>
      <point x="341" y="290" type="line"/>
      <point x="354" y="305" type="line"/>
      <point x="227" y="340" type="line"/>
      <point x="214" y="327" type="line"/>
    </contour>
    <contour>
      <point x="214" y="330" type="line"/>
      <point x="389" y="330" type="line"/>
      <point x="389" y="350" type="line"/>
      <point x="214" y="350" type="line"/>
    </contour>
    <contour>
      <point x="356" y="290" type="line"/>
      <point x="389" y="327" type="line"/>
      <point x="376" y="340" type="line"/>
      <point x="343" y="305" type="line"/>
    </contour>
    <contour>
      <point x="222" y="277" type="line"/>
      <point x="204" y="263" type="line"/>
      <point x="337" y="183" type="line"/>
      <point x="353" y="198" type="line"/>
    </contour>
    <contour>
      <point x="338" y="189" type="line"/>
      <point x="212" y="112" type="line"/>
      <point x="227" y="97" type="line"/>
      <point x="352" y="176" type="line"/>
    </contour>
    <contour>
      <point x="167" y="274" type="line"/>
      <point x="101" y="190" type="line"/>
      <point x="116" y="177" type="line"/>
      <point x="182" y="261" type="line"/>
    </contour>
    <contour>
      <point x="391" y="270" type="line"/>
      <point x="391" y="350" type="line"/>
      <point x="371" y="350" type="line"/>
      <point x="371" y="260" type="line"/>
    </contour>
    <contour>
      <point x="376" y="278" type="line"/>
      <point x="345" y="193" type="line"/>
      <point x="359" y="181" type="line"/>
      <point x="391" y="264" type="line"/>
    </contour>
    <contour>
      <point x="360" y="190" type="line"/>
      <point x="344" y="177" type="line"/>
      <point x="374" y="99" type="line"/>
      <point x="391" y="110" type="line"/>
    </contour>
    <contour>
      <point x="445" y="119" type="line"/>
      <point x="376" y="119" type="line"/>
      <point x="376" y="99" type="line"/>
      <point x="445" y="99" type="line"/>
    </contour>
    <contour>
      <point x="441" y="274" type="line"/>
      <point x="380" y="274" type="line"/>
      <point x="380" y="257" type="line"/>
      <point x="441" y="257" type="line"/>
    </contour>
    <contour>
      <point x="209" y="10" type="line"/>
      <point x="229" y="10" type="line"/>
      <point x="229" y="110" type="line"/>
      <point x="209" y="110" type="line"/>
    </contour>
    <contour>
      <point x="391" y="0" type="line"/>
      <point x="392" y="110" type="line"/>
      <point x="371" y="120" type="line"/>
      <point x="371" y="0" type="line"/>
    </contour>
    <contour>
      <point x="423" y="270" type="line"/>
      <point x="395" y="193" type="line"/>
      <point x="408" y="180" type="line"/>
      <point x="438" y="259" type="line"/>
    </contour>
    <contour>
      <point x="409" y="192" type="line"/>
      <point x="394" y="181" type="line"/>
      <point x="425" y="106" type="line"/>
      <point x="438" y="118" type="line"/>
    </contour>
    <contour>
      <point x="110" y="177" type="line"/>
      <point x="409" y="177" type="line"/>
      <point x="409" y="197" type="line"/>
      <point x="110" y="197" type="line"/>
    </contour>
    <contour>
      <point x="104" y="177" type="line"/>
      <point x="119" y="188" type="line"/>
      <point x="27" y="349" type="line"/>
      <point x="20" y="327" type="line"/>
    </contour>
  </outline>
</glyph>
<glyph name="six" format="2">
  <advance width="461"/>
  <unicode hex="0036"/>
  <outline>
    <contour>
      <point x="25" y="293" type="line"/>
      <point x="201" y="600" type="line"/>
      <point x="181" y="600" type="line"/>
      <point x="10" y="302" type="line"/>
    </contour>
    <contour>
      <point x="119" y="-1" type="line"/>
      <point x="132" y="14" type="line"/>
      <point x="25" y="136" type="line"/>
      <point x="10" y="123" type="line"/>
    </contour>
    <contour>
      <point x="129" y="4" type="line"/>
      <point x="219" y="81" type="line"/>
      <point x="203" y="90" type="line"/>
      <point x="113" y="12" type="line"/>
    </contour>
    <contour>
      <point x="26" y="118" type="line"/>
      <point x="157" y="142" type="line"/>
      <point x="150" y="160" type="line"/>
      <point x="21" y="135" type="line"/>
    </contour>
    <contour>
      <point x="10" y="123" type="line"/>
      <point x="30" y="123" type="line"/>
      <point x="30" y="308" type="line"/>
      <point x="10" y="302" type="line"/>
    </contour>
    <contour>
      <point x="206" y="75" type="line"/>
      <point x="218" y="91" type="line"/>
      <point x="153" y="160" type="line"/>
      <point x="139" y="146" type="line"/>
    </contour>
    <contour>
      <point x="119" y="-1" type="line"/>
      <point x="345" y="-1" type="line"/>
      <point x="345" y="19" type="line"/>
      <point x="119" y="19" type="line"/>
    </contour>
    <contour>
      <point x="151" y="141" type="line"/>
      <point x="207" y="173" type="line"/>
      <point x="200" y="189" type="line"/>
      <point x="146" y="159" type="line"/>
    </contour>
    <contour>
      <point x="220" y="82" type="line"/>
      <point x="227" y="154" type="line"/>
      <point x="213" y="164" type="line"/>
      <point x="205" y="93" type="line"/>
    </contour>
    <contour>
      <point x="139" y="146" type="line"/>
      <point x="159" y="146" type="line"/>
      <point x="159" y="285" type="line"/>
      <point x="139" y="285" type="line"/>
    </contour>
    <contour>
      <point x="206" y="75" type="line"/>
      <point x="341" y="75" type="line"/>
      <point x="341" y="95" type="line"/>
      <point x="206" y="95" type="line"/>
    </contour>
    <contour>
      <point x="148" y="270" type="line"/>
      <point x="153" y="289" type="line"/>
      <point x="21" y="309" type="line"/>
      <point x="17" y="291" type="line"/>
    </contour>
    <contour>
      <point x="214" y="147" type="line"/>
      <point x="227" y="162" type="line"/>
      <point x="207" y="189" type="line"/>
      <point x="194" y="175" type="line"/>
    </contour>
    <contour>
      <point x="335" y="6" type="line"/>
      <point x="351" y="14" type="line"/>
      <point x="342" y="91" type="line"/>
      <point x="327" y="83" type="line"/>
    </contour>
    <contour>
      <point x="214" y="147" type="line"/>
      <point x="244" y="147" type="line"/>
      <point x="244" y="168" type="line"/>
      <point x="214" y="168" type="line"/>
    </contour>
    <contour>
      <point x="194" y="175" type="line"/>
      <point x="214" y="175" type="line"/>
      <point x="214" y="241" type="line"/>
      <point x="194" y="241" type="line"/>
    </contour>
    <contour>
      <point x="331" y="82" type="line"/>
      <point x="346" y="92" type="line"/>
      <point x="243" y="164" type="line"/>
      <point x="229" y="154" type="line"/>
    </contour>
    <contour>
      <point x="202" y="226" type="line"/>
      <point x="211" y="243" type="line"/>
      <point x="158" y="286" type="line"/>
      <point x="148" y="270" type="line"/>
    </contour>
    <contour>
      <point x="244" y="147" type="line"/>
      <point x="263" y="175" type="line"/>
      <point x="246" y="185" type="line"/>
      <point x="229" y="160" type="line"/>
    </contour>
    <contour>
      <point x="150" y="271" type="line"/>
      <point x="233" y="325" type="line"/>
      <point x="223" y="339" type="line"/>
      <point x="139" y="285" type="line"/>
    </contour>
    <contour>
      <point x="341" y="75" type="line"/>
      <point x="405" y="134" type="line"/>
      <point x="392" y="146" type="line"/>
      <point x="328" y="88" type="line"/>
    </contour>
    <contour>
      <point x="210" y="228" type="line"/>
      <point x="225" y="255" type="line"/>
      <point x="213" y="270" type="line"/>
      <point x="194" y="241" type="line"/>
    </contour>
    <contour>
      <point x="390" y="126" type="line"/>
      <point x="398" y="144" type="line"/>
      <point x="257" y="188" type="line"/>
      <point x="249" y="171" type="line"/>
    </contour>
    <contour>
      <point x="345" y="-1" type="line"/>
      <point x="451" y="104" type="line"/>
      <point x="440" y="120" type="line"/>
      <point x="333" y="15" type="line"/>
    </contour>
    <contour>
      <point x="243" y="175" type="line"/>
      <point x="263" y="175" type="line"/>
      <point x="263" y="242" type="line"/>
      <point x="243" y="242" type="line"/>
    </contour>
    <contour>
      <point x="211" y="253" type="line"/>
      <point x="225" y="263" type="line"/>
      <point x="228" y="333" type="line"/>
      <point x="212" y="324" type="line"/>
    </contour>
    <contour>
      <point x="213" y="249" type="line"/>
      <point x="243" y="249" type="line"/>
      <point x="243" y="270" type="line"/>
      <point x="213" y="270" type="line"/>
    </contour>
    <contour>
      <point x="249" y="228" type="line"/>
      <point x="263" y="242" type="line"/>
      <point x="243" y="270" type="line"/>
      <point x="230" y="254" type="line"/>
    </contour>
    <contour>
      <point x="440" y="99" type="line"/>
      <point x="444" y="117" type="line"/>
      <point x="397" y="147" type="line"/>
      <point x="392" y="128" type="line"/>
    </contour>
    <contour>
      <point x="223" y="319" type="line"/>
      <point x="340" y="319" type="line"/>
      <point x="340" y="339" type="line"/>
      <point x="223" y="339" type="line"/>
    </contour>
    <contour>
      <point x="245" y="253" type="line"/>
      <point x="351" y="322" type="line"/>
      <point x="337" y="333" type="line"/>
      <point x="229" y="264" type="line"/>
    </contour>
    <contour>
      <point x="257" y="227" type="line"/>
      <point x="395" y="273" type="line"/>
      <point x="388" y="290" type="line"/>
      <point x="248" y="243" type="line"/>
    </contour>
    <contour>
      <point x="385" y="134" type="line"/>
      <point x="405" y="134" type="line"/>
      <point x="405" y="290" type="line"/>
      <point x="385" y="290" type="line"/>
    </contour>
    <contour>
      <point x="157" y="277" type="line"/>
      <point x="299" y="528" type="line"/>
      <point x="280" y="534" type="line"/>
      <point x="140" y="284" type="line"/>
    </contour>
    <contour>
      <point x="233" y="329" type="line"/>
      <point x="249" y="394" type="line"/>
      <point x="228" y="392" type="line"/>
      <point x="214" y="332" type="line"/>
    </contour>
    <contour>
      <point x="393" y="275" type="line"/>
      <point x="405" y="290" type="line"/>
      <point x="344" y="339" type="line"/>
      <point x="332" y="324" type="line"/>
    </contour>
    <contour>
      <point x="431" y="104" type="line"/>
      <point x="451" y="104" type="line"/>
      <point x="451" y="301" type="line"/>
      <point x="431" y="301" type="line"/>
    </contour>
    <contour>
      <point x="350" y="324" type="line"/>
      <point x="342" y="384" type="line"/>
      <point x="325" y="395" type="line"/>
      <point x="331" y="333" type="line"/>
    </contour>
    <contour>
      <point x="238" y="383" type="line"/>
      <point x="337" y="383" type="line"/>
      <point x="337" y="403" type="line"/>
      <point x="238" y="403" type="line"/>
    </contour>
    <contour>
      <point x="397" y="274" type="line"/>
      <point x="438" y="285" type="line"/>
      <point x="431" y="304" type="line"/>
      <point x="391" y="293" type="line"/>
    </contour>
    <contour>
      <point x="441" y="286" type="line"/>
      <point x="451" y="301" type="line"/>
      <point x="337" y="403" type="line"/>
      <point x="325" y="388" type="line"/>
    </contour>
    <contour>
      <point x="279" y="515" type="line"/>
      <point x="293" y="526" type="line"/>
      <point x="190" y="592" type="line"/>
      <point x="176" y="579" type="line"/>
    </contour>
    <contour>
      <point x="228" y="392" type="line"/>
      <point x="248" y="391" type="line"/>
      <point x="387" y="600" type="line"/>
      <point x="362" y="600" type="line"/>
    </contour>
    <contour>
      <point x="286" y="512" type="line"/>
      <point x="367" y="579" type="line"/>
      <point x="358" y="596" type="line"/>
      <point x="280" y="529" type="line"/>
    </contour>
    <contour>
      <point x="184" y="578" type="line"/>
      <point x="366" y="578" type="line"/>
      <point x="366" y="600" type="line"/>
      <point x="184" y="600" type="line"/>
    </contour>
  </outline>
</glyph>
<glyph name="eight" format="2">
  <advance width="446"/>
  <unicode hex="0038"/>
  <outline>
    <contour>
      <point x="258" y="291" type="line"/>
      <point x="436" y="381" type="line"/>
      <point x="425" y="397" type="line"/>
      <point x="251" y="309" type="line"/>
    </contour>
    <contour>
      <point x="129" y="-1" type="line"/>
      <point x="142" y="14" type="line"/>
      <point x="22" y="90" type="line"/>
      <point x="10" y="74" type="line"/>
    </contour>
    <contour>
      <point x="26" y="73" type="line"/>
      <point x="143" y="100" type="line"/>
      <point x="135" y="116" type="line"/>
      <point x="19" y="89" type="line"/>
    </contour>
    <contour>
      <point x="10" y="74" type="line"/>
      <point x="30" y="74" type="line"/>
      <point x="30" y="221" type="line"/>
      <point x="10" y="221" type="line"/>
    </contour>
    <contour>
      <point x="142" y="4" type="line"/>
      <point x="221" y="60" type="line"/>
      <point x="202" y="70" type="line"/>
      <point x="123" y="13" type="line"/>
    </contour>
    <contour>
      <point x="202" y="55" type="line"/>
      <point x="213" y="70" type="line"/>
      <point x="141" y="119" type="line"/>
      <point x="130" y="104" type="line"/>
    </contour>
    <contour>
      <point x="129" y="-1" type="line"/>
      <point x="327" y="-1" type="line"/>
      <point x="327" y="19" type="line"/>
      <point x="129" y="19" type="line"/>
    </contour>
    <contour>
      <point x="130" y="104" type="line"/>
      <point x="150" y="104" type="line"/>
      <point x="150" y="215" type="line"/>
      <point x="130" y="215" type="line"/>
    </contour>
    <contour>
      <point x="143" y="199" type="line"/>
      <point x="143" y="218" type="line"/>
      <point x="20" y="222" type="line"/>
      <point x="20" y="204" type="line"/>
    </contour>
    <contour>
      <point x="146" y="102" type="line"/>
      <point x="212" y="156" type="line"/>
      <point x="204" y="173" type="line"/>
      <point x="139" y="119" type="line"/>
    </contour>
    <contour>
      <point x="209" y="58" type="line"/>
      <point x="230" y="133" type="line"/>
      <point x="216" y="142" type="line"/>
      <point x="194" y="68" type="line"/>
    </contour>
    <contour>
      <point x="202" y="55" type="line"/>
      <point x="314" y="55" type="line"/>
      <point x="314" y="75" type="line"/>
      <point x="202" y="75" type="line"/>
    </contour>
    <contour>
      <point x="21" y="205" type="line"/>
      <point x="195" y="293" type="line"/>
      <point x="188" y="311" type="line"/>
      <point x="10" y="221" type="line"/>
    </contour>
    <contour>
      <point x="206" y="196" type="line"/>
      <point x="207" y="216" type="line"/>
      <point x="146" y="217" type="line"/>
      <point x="146" y="198" type="line"/>
    </contour>
    <contour>
      <point x="218" y="127" type="line"/>
      <point x="231" y="140" type="line"/>
      <point x="209" y="173" type="line"/>
      <point x="196" y="161" type="line"/>
    </contour>
    <contour>
      <point x="316" y="4" type="line"/>
      <point x="333" y="13" type="line"/>
      <point x="318" y="72" type="line"/>
      <point x="301" y="62" type="line"/>
    </contour>
    <contour>
      <point x="218" y="127" type="line"/>
      <point x="238" y="127" type="line"/>
      <point x="238" y="148" type="line"/>
      <point x="218" y="148" type="line"/>
    </contour>
    <contour>
      <point x="196" y="160" type="line"/>
      <point x="216" y="160" type="line"/>
      <point x="216" y="211" type="line"/>
      <point x="196" y="211" type="line"/>
    </contour>
    <contour>
      <point x="307" y="58" type="line"/>
      <point x="322" y="68" type="line"/>
      <point x="240" y="142" type="line"/>
      <point x="226" y="133" type="line"/>
    </contour>
    <contour>
      <point x="145" y="202" type="line"/>
      <point x="200" y="296" type="line"/>
      <point x="188" y="311" type="line"/>
      <point x="130" y="215" type="line"/>
    </contour>
    <contour>
      <point x="238" y="127" type="line"/>
      <point x="260" y="161" type="line"/>
      <point x="247" y="173" type="line"/>
      <point x="225" y="140" type="line"/>
    </contour>
    <contour>
      <point x="208" y="196" type="line"/>
      <point x="231" y="224" type="line"/>
      <point x="218" y="239" type="line"/>
      <point x="196" y="211" type="line"/>
    </contour>
    <contour>
      <point x="314" y="55" type="line"/>
      <point x="406" y="104" type="line"/>
      <point x="395" y="119" type="line"/>
      <point x="303" y="70" type="line"/>
    </contour>
    <contour>
      <point x="188" y="291" type="line"/>
      <point x="195" y="309" type="line"/>
      <point x="21" y="397" type="line"/>
      <point x="10" y="381" type="line"/>
    </contour>
    <contour>
      <point x="20" y="380" type="line"/>
      <point x="143" y="384" type="line"/>
      <point x="143" y="403" type="line"/>
      <point x="20" y="398" type="line"/>
    </contour>
    <contour>
      <point x="327" y="-1" type="line"/>
      <point x="436" y="74" type="line"/>
      <point x="424" y="90" type="line"/>
      <point x="314" y="14" type="line"/>
    </contour>
    <contour>
      <point x="10" y="381" type="line"/>
      <point x="30" y="381" type="line"/>
      <point x="30" y="528" type="line"/>
      <point x="10" y="528" type="line"/>
    </contour>
    <contour>
      <point x="240" y="160" type="line"/>
      <point x="260" y="160" type="line"/>
      <point x="260" y="211" type="line"/>
      <point x="240" y="211" type="line"/>
    </contour>
    <contour>
      <point x="213" y="222" type="line"/>
      <point x="231" y="230" type="line"/>
      <point x="202" y="304" type="line"/>
      <point x="187" y="297" type="line"/>
    </contour>
    <contour>
      <point x="218" y="219" type="line"/>
      <point x="238" y="219" type="line"/>
      <point x="238" y="239" type="line"/>
      <point x="218" y="239" type="line"/>
    </contour>
    <contour>
      <point x="390" y="102" type="line"/>
      <point x="397" y="119" type="line"/>
      <point x="252" y="173" type="line"/>
      <point x="244" y="156" type="line"/>
    </contour>
    <contour>
      <point x="188" y="291" type="line"/>
      <point x="200" y="306" type="line"/>
      <point x="145" y="400" type="line"/>
      <point x="130" y="387" type="line"/>
    </contour>
    <contour>
      <point x="248" y="196" type="line"/>
      <point x="260" y="211" type="line"/>
      <point x="238" y="239" type="line"/>
      <point x="225" y="224" type="line"/>
    </contour>
    <contour>
      <point x="420" y="73" type="line"/>
      <point x="427" y="89" type="line"/>
      <point x="401" y="116" type="line"/>
      <point x="393" y="100" type="line"/>
    </contour>
    <contour>
      <point x="130" y="387" type="line"/>
      <point x="150" y="387" type="line"/>
      <point x="150" y="498" type="line"/>
      <point x="130" y="498" type="line"/>
    </contour>
    <contour>
      <point x="243" y="222" type="line"/>
      <point x="259" y="297" type="line"/>
      <point x="244" y="304" type="line"/>
      <point x="225" y="230" type="line"/>
    </contour>
    <contour>
      <point x="250" y="196" type="line"/>
      <point x="390" y="198" type="line"/>
      <point x="390" y="217" type="line"/>
      <point x="249" y="216" type="line"/>
    </contour>
    <contour>
      <point x="188" y="291" type="line"/>
      <point x="258" y="291" type="line"/>
      <point x="258" y="311" type="line"/>
      <point x="188" y="311" type="line"/>
    </contour>
    <contour>
      <point x="146" y="385" type="line"/>
      <point x="207" y="386" type="line"/>
      <point x="206" y="406" type="line"/>
      <point x="146" y="404" type="line"/>
    </contour>
    <contour>
      <point x="202" y="298" type="line"/>
      <point x="231" y="372" type="line"/>
      <point x="213" y="380" type="line"/>
      <point x="187" y="305" type="line"/>
    </contour>
    <contour>
      <point x="386" y="104" type="line"/>
      <point x="406" y="104" type="line"/>
      <point x="406" y="215" type="line"/>
      <point x="386" y="215" type="line"/>
    </contour>
    <contour>
      <point x="135" y="485" type="line"/>
      <point x="143" y="502" type="line"/>
      <point x="26" y="529" type="line"/>
      <point x="19" y="512" type="line"/>
    </contour>
    <contour>
      <point x="218" y="363" type="line"/>
      <point x="231" y="378" type="line"/>
      <point x="208" y="406" type="line"/>
      <point x="196" y="391" type="line"/>
    </contour>
    <contour>
      <point x="391" y="202" type="line"/>
      <point x="406" y="215" type="line"/>
      <point x="258" y="311" type="line"/>
      <point x="246" y="296" type="line"/>
    </contour>
    <contour>
      <point x="204" y="429" type="line"/>
      <point x="212" y="446" type="line"/>
      <point x="146" y="500" type="line"/>
      <point x="139" y="483" type="line"/>
    </contour>
    <contour>
      <point x="218" y="363" type="line"/>
      <point x="238" y="363" type="line"/>
      <point x="238" y="383" type="line"/>
      <point x="218" y="383" type="line"/>
    </contour>
    <contour>
      <point x="244" y="298" type="line"/>
      <point x="259" y="305" type="line"/>
      <point x="243" y="380" type="line"/>
      <point x="225" y="372" type="line"/>
    </contour>
    <contour>
      <point x="196" y="391" type="line"/>
      <point x="216" y="391" type="line"/>
      <point x="216" y="442" type="line"/>
      <point x="196" y="442" type="line"/>
    </contour>
    <contour>
      <point x="416" y="74" type="line"/>
      <point x="436" y="74" type="line"/>
      <point x="436" y="221" type="line"/>
      <point x="416" y="221" type="line"/>
    </contour>
    <contour>
      <point x="22" y="512" type="line"/>
      <point x="142" y="585" type="line"/>
      <point x="129" y="600" type="line"/>
      <point x="10" y="528" type="line"/>
    </contour>
    <contour>
      <point x="393" y="199" type="line"/>
      <point x="426" y="204" type="line"/>
      <point x="426" y="222" type="line"/>
      <point x="393" y="218" type="line"/>
    </contour>
    <contour>
      <point x="425" y="205" type="line"/>
      <point x="436" y="221" type="line"/>
      <point x="258" y="311" type="line"/>
      <point x="251" y="293" type="line"/>
    </contour>
    <contour>
      <point x="141" y="483" type="line"/>
      <point x="213" y="532" type="line"/>
      <point x="202" y="547" type="line"/>
      <point x="130" y="498" type="line"/>
    </contour>
    <contour>
      <point x="238" y="363" type="line"/>
      <point x="260" y="391" type="line"/>
      <point x="248" y="406" type="line"/>
      <point x="225" y="378" type="line"/>
    </contour>
    <contour>
      <point x="209" y="429" type="line"/>
      <point x="231" y="462" type="line"/>
      <point x="218" y="475" type="line"/>
      <point x="196" y="441" type="line"/>
    </contour>
    <contour>
      <point x="258" y="291" type="line"/>
      <point x="406" y="387" type="line"/>
      <point x="391" y="400" type="line"/>
      <point x="246" y="306" type="line"/>
    </contour>
    <contour>
      <point x="216" y="460" type="line"/>
      <point x="230" y="469" type="line"/>
      <point x="209" y="544" type="line"/>
      <point x="194" y="534" type="line"/>
    </contour>
    <contour>
      <point x="240" y="391" type="line"/>
      <point x="260" y="391" type="line"/>
      <point x="260" y="442" type="line"/>
      <point x="240" y="442" type="line"/>
    </contour>
    <contour>
      <point x="218" y="454" type="line"/>
      <point x="238" y="454" type="line"/>
      <point x="238" y="475" type="line"/>
      <point x="218" y="475" type="line"/>
    </contour>
    <contour>
      <point x="201" y="533" type="line"/>
      <point x="219" y="543" type="line"/>
      <point x="141" y="595" type="line"/>
      <point x="123" y="586" type="line"/>
    </contour>
    <contour>
      <point x="247" y="429" type="line"/>
      <point x="260" y="441" type="line"/>
      <point x="238" y="475" type="line"/>
      <point x="225" y="462" type="line"/>
    </contour>
    <contour>
      <point x="390" y="385" type="line"/>
      <point x="390" y="404" type="line"/>
      <point x="250" y="406" type="line"/>
      <point x="249" y="386" type="line"/>
    </contour>
    <contour>
      <point x="202" y="527" type="line"/>
      <point x="314" y="527" type="line"/>
      <point x="314" y="547" type="line"/>
      <point x="202" y="547" type="line"/>
    </contour>
    <contour>
      <point x="240" y="460" type="line"/>
      <point x="322" y="534" type="line"/>
      <point x="307" y="544" type="line"/>
      <point x="226" y="469" type="line"/>
    </contour>
    <contour>
      <point x="252" y="429" type="line"/>
      <point x="397" y="483" type="line"/>
      <point x="390" y="500" type="line"/>
      <point x="244" y="446" type="line"/>
    </contour>
    <contour>
      <point x="426" y="380" type="line"/>
      <point x="426" y="398" type="line"/>
      <point x="393" y="403" type="line"/>
      <point x="393" y="384" type="line"/>
    </contour>
    <contour>
      <point x="386" y="387" type="line"/>
      <point x="406" y="387" type="line"/>
      <point x="406" y="498" type="line"/>
      <point x="386" y="498" type="line"/>
    </contour>
    <contour>
      <point x="129" y="580" type="line"/>
      <point x="327" y="580" type="line"/>
      <point x="327" y="600" type="line"/>
      <point x="129" y="600" type="line"/>
    </contour>
    <contour>
      <point x="395" y="483" type="line"/>
      <point x="406" y="498" type="line"/>
      <point x="314" y="547" type="line"/>
      <point x="303" y="532" type="line"/>
    </contour>
    <contour>
      <point x="318" y="530" type="line"/>
      <point x="333" y="586" type="line"/>
      <point x="317" y="595" type="line"/>
      <point x="302" y="540" type="line"/>
    </contour>
    <contour>
      <point x="416" y="381" type="line"/>
      <point x="436" y="381" type="line"/>
      <point x="436" y="528" type="line"/>
      <point x="416" y="528" type="line"/>
    </contour>
    <contour>
      <point x="401" y="486" type="line"/>
      <point x="427" y="513" type="line"/>
      <point x="420" y="529" type="line"/>
      <point x="393" y="502" type="line"/>
    </contour>
    <contour>
      <point x="424" y="512" type="line"/>
      <point x="436" y="528" type="line"/>
      <point x="327" y="600" type="line"/>
      <point x="314" y="585" type="line"/>
    </contour>
  </outline>
</glyph>
<glyph name="colon" format="2">
  <advance width="195"/>
  <unicode hex="003A"/>
  <outline>
    <contour>
      <point x="15" y="64" type="line"/>
      <point x="180" y="64" type="line"/>
      <point x="180" y="82" type="line"/>
      <point x="15" y="82" type="line"/>
    </contour>
    <contour>
      <point x="29" y="64" type="line"/>
      <point x="150" y="133" type="line"/>
      <point x="141" y="153" type="line"/>
      <point x="15" y="78" type="line"/>
    </contour>
    <contour>
      <point x="166" y="64" type="line"/>
      <point x="180" y="78" type="line"/>
      <point x="153" y="154" type="line"/>
      <point x="144" y="134" type="line"/>
    </contour>
    <contour>
      <point x="15" y="64" type="line"/>
      <point x="35" y="64" type="line"/>
      <point x="35" y="229" type="line"/>
      <point x="15" y="229" type="line"/>
    </contour>
    <contour>
      <point x="141" y="138" type="line"/>
      <point x="154" y="138" type="line"/>
      <point x="154" y="155" type="line"/>
      <point x="141" y="155" type="line"/>
    </contour>
    <contour>
      <point x="160" y="64" type="line"/>
      <point x="180" y="64" type="line"/>
      <point x="180" y="229" type="line"/>
      <point x="160" y="229" type="line"/>
    </contour>
    <contour>
      <point x="142" y="140" type="line"/>
      <point x="151" y="160" type="line"/>
      <point x="29" y="229" type="line"/>
      <point x="15" y="215" type="line"/>
    </contour>
    <contour>
      <point x="18" y="211" type="line"/>
      <point x="180" y="211" type="line"/>
      <point x="180" y="229" type="line"/>
      <point x="18" y="229" type="line"/>
    </contour>
    <contour>
      <point x="153" y="140" type="line"/>
      <point x="179" y="215" type="line"/>
      <point x="165" y="229" type="line"/>
      <point x="144" y="160" type="line"/>
    </contour>
    <contour>
      <point x="15" y="264" type="line"/>
      <point x="180" y="264" type="line"/>
      <point x="180" y="282" type="line"/>
      <point x="15" y="282" type="line"/>
    </contour>
    <contour>
      <point x="29" y="264" type="line"/>
      <point x="150" y="333" type="line"/>
      <point x="141" y="353" type="line"/>
      <point x="15" y="278" type="line"/>
    </contour>
    <contour>
      <point x="166" y="264" type="line"/>
      <point x="180" y="278" type="line"/>
      <point x="153" y="354" type="line"/>
      <point x="144" y="334" type="line"/>
    </contour>
    <contour>
      <point x="15" y="264" type="line"/>
      <point x="35" y="264" type="line"/>
      <point x="35" y="429" type="line"/>
      <point x="15" y="429" type="line"/>
    </contour>
    <contour>
      <point x="141" y="338" type="line"/>
      <point x="154" y="338" type="line"/>
      <point x="154" y="355" type="line"/>
      <point x="141" y="355" type="line"/>
    </contour>
    <contour>
      <point x="160" y="264" type="line"/>
      <point x="180" y="264" type="line"/>
      <point x="180" y="429" type="line"/>
      <point x="160" y="429" type="line"/>
    </contour>
    <contour>
      <point x="142" y="340" type="line"/>
      <point x="151" y="360" type="line"/>
      <point x="29" y="429" type="line"/>
      <point x="15" y="415" type="line"/>
    </contour>
    <contour>
      <point x="18" y="411" type="line"/>
      <point x="180" y="411" type="line"/>
      <point x="180" y="429" type="line"/>
      <point x="18" y="429" type="line"/>
    </contour>
    <contour>
      <point x="153" y="340" type="line"/>
      <point x="179" y="415" type="line"/>
      <point x="165" y="429" type="line"/>
      <point x="144" y="360" type="line"/>
    </contour>
  </outline>
</glyph>
<glyph name="question" format="2">
  <advance width="401"/>
  <unicode hex="003F"/>
  <outline>
    <contour>
      <point x="225" y="310" type="line"/>
      <point x="368" y="400" type="line"/>
      <point x="358" y="416" type="line"/>
      <point x="215" y="325" type="line"/>
    </contour>
    <contour>
      <point x="261" y="278" type="line"/>
      <point x="396" y="361" type="line"/>
      <point x="384" y="377" type="line"/>
      <point x="249" y="294" type="line"/>
    </contour>
    <contour>
      <point x="241" y="190" type="line"/>
      <point x="265" y="296" type="line"/>
      <point x="245" y="296" type="line"/>
      <point x="221" y="190" type="line"/>
    </contour>
    <contour>
      <point x="396" y="361" type="line"/>
      <point x="396" y="515" type="line"/>
      <point x="376" y="515" type="line"/>
      <point x="376" y="361" type="line"/>
    </contour>
    <contour>
      <point x="169" y="190" type="line"/>
      <point x="235" y="190" type="line"/>
      <point x="235" y="209" type="line"/>
      <point x="169" y="209" type="line"/>
    </contour>
    <contour>
      <point x="234" y="197" type="line"/>
      <point x="234" y="325" type="line"/>
      <point x="214" y="325" type="line"/>
      <point x="214" y="197" type="line"/>
    </contour>
    <contour>
      <point x="370" y="404" type="line"/>
      <point x="370" y="488" type="line"/>
      <point x="350" y="488" type="line"/>
      <point x="350" y="404" type="line"/>
    </contour>
    <contour>
      <point x="352" y="400" type="line"/>
      <point x="358" y="418" type="line"/>
      <point x="213" y="418" type="line"/>
      <point x="215" y="400" type="line"/>
    </contour>
    <contour>
      <point x="217" y="430" type="line"/>
      <point x="360" y="472" type="line"/>
      <point x="356" y="489" type="line"/>
      <point x="214" y="447" type="line"/>
    </contour>
    <contour>
      <point x="385" y="499" type="line"/>
      <point x="396" y="515" type="line"/>
      <point x="280" y="600" type="line"/>
      <point x="268" y="584" type="line"/>
    </contour>
    <contour>
      <point x="231" y="309" type="line"/>
      <point x="229" y="329" type="line"/>
      <point x="144" y="329" type="line"/>
      <point x="145" y="309" type="line"/>
    </contour>
    <contour>
      <point x="174" y="190" type="line"/>
      <point x="155" y="324" type="line"/>
      <point x="135" y="325" type="line"/>
      <point x="154" y="190" type="line"/>
    </contour>
    <contour>
      <point x="228" y="404" type="line"/>
      <point x="228" y="448" type="line"/>
      <point x="208" y="448" type="line"/>
      <point x="208" y="404" type="line"/>
    </contour>
    <contour>
      <point x="358" y="473" type="line"/>
      <point x="370" y="488" type="line"/>
      <point x="295" y="544" type="line"/>
      <point x="283" y="529" type="line"/>
    </contour>
    <contour>
      <point x="145" y="309" type="line"/>
      <point x="228" y="403" type="line"/>
      <point x="218" y="419" type="line"/>
      <point x="135" y="325" type="line"/>
    </contour>
    <contour>
      <point x="215" y="432" type="line"/>
      <point x="226" y="447" type="line"/>
      <point x="207" y="467" type="line"/>
      <point x="190" y="452" type="line"/>
    </contour>
    <contour>
      <point x="208" y="446" type="line"/>
      <point x="208" y="467" type="line"/>
      <point x="170" y="467" type="line"/>
      <point x="170" y="446" type="line"/>
    </contour>
    <contour>
      <point x="159" y="406" type="line"/>
      <point x="159" y="444" type="line"/>
      <point x="139" y="444" type="line"/>
      <point x="139" y="406" type="line"/>
    </contour>
    <contour>
      <point x="148" y="429" type="line"/>
      <point x="185" y="456" type="line"/>
      <point x="174" y="471" type="line"/>
      <point x="137" y="444" type="line"/>
    </contour>
    <contour>
      <point x="183" y="453" type="line"/>
      <point x="210" y="531" type="line"/>
      <point x="193" y="536" type="line"/>
      <point x="166" y="455" type="line"/>
    </contour>
    <contour>
      <point x="293" y="524" type="line"/>
      <point x="295" y="544" type="line"/>
      <point x="188" y="544" type="line"/>
      <point x="188" y="524" type="line"/>
    </contour>
    <contour>
      <point x="159" y="391" type="line"/>
      <point x="159" y="411" type="line"/>
      <point x="5" y="411" type="line"/>
      <point x="5" y="391" type="line"/>
    </contour>
    <contour>
      <point x="133" y="463" type="line"/>
      <point x="203" y="530" type="line"/>
      <point x="191" y="542" type="line"/>
      <point x="118" y="473" type="line"/>
    </contour>
    <contour>
      <point x="280" y="580" type="line"/>
      <point x="280" y="600" type="line"/>
      <point x="114" y="600" type="line"/>
      <point x="117" y="580" type="line"/>
    </contour>
    <contour>
      <point x="131" y="478" type="line"/>
      <point x="21" y="501" type="line"/>
      <point x="14" y="485" type="line"/>
      <point x="121" y="462" type="line"/>
    </contour>
    <contour>
      <point x="192" y="523" type="line"/>
      <point x="205" y="535" type="line"/>
      <point x="128" y="596" type="line"/>
      <point x="108" y="589" type="line"/>
    </contour>
    <contour>
      <point x="25" y="411" type="line"/>
      <point x="25" y="493" type="line"/>
      <point x="5" y="496" type="line"/>
      <point x="5" y="411" type="line"/>
    </contour>
    <contour>
      <point x="15" y="478" type="line"/>
      <point x="127" y="585" type="line"/>
      <point x="114" y="600" type="line"/>
      <point x="5" y="496" type="line"/>
    </contour>
    <contour>
      <point x="121" y="462" type="line"/>
      <point x="144" y="432" type="line"/>
      <point x="155" y="447" type="line"/>
      <point x="131" y="478" type="line"/>
    </contour>
    <contour>
      <point x="359" y="466" type="line"/>
      <point x="390" y="495" type="line"/>
      <point x="380" y="513" type="line"/>
      <point x="356" y="490" type="line"/>
    </contour>
    <contour>
      <point x="383" y="359" type="line"/>
      <point x="389" y="376" type="line"/>
      <point x="363" y="419" type="line"/>
      <point x="353" y="401" type="line"/>
    </contour>
    <contour>
      <point x="257" y="274" type="line"/>
      <point x="263" y="292" type="line"/>
      <point x="235" y="327" type="line"/>
      <point x="229" y="310" type="line"/>
    </contour>
    <contour>
      <point x="223" y="190" type="line"/>
      <point x="237" y="190" type="line"/>
      <point x="237" y="209" type="line"/>
      <point x="223" y="209" type="line"/>
    </contour>
    <contour>
      <point x="115" y="0" type="line"/>
      <point x="280" y="0" type="line"/>
      <point x="280" y="18" type="line"/>
      <point x="115" y="18" type="line"/>
    </contour>
    <contour>
      <point x="129" y="0" type="line"/>
      <point x="245" y="69" type="line"/>
      <point x="236" y="89" type="line"/>
      <point x="115" y="14" type="line"/>
    </contour>
    <contour>
      <point x="266" y="0" type="line"/>
      <point x="280" y="14" type="line"/>
      <point x="251" y="90" type="line"/>
      <point x="239" y="70" type="line"/>
    </contour>
    <contour>
      <point x="115" y="0" type="line"/>
      <point x="135" y="0" type="line"/>
      <point x="135" y="165" type="line"/>
      <point x="115" y="165" type="line"/>
    </contour>
    <contour>
      <point x="236" y="74" type="line"/>
      <point x="252" y="74" type="line"/>
      <point x="252" y="91" type="line"/>
      <point x="236" y="91" type="line"/>
    </contour>
    <contour>
      <point x="260" y="0" type="line"/>
      <point x="280" y="0" type="line"/>
      <point x="280" y="165" type="line"/>
      <point x="260" y="165" type="line"/>
    </contour>
    <contour>
      <point x="237" y="76" type="line"/>
      <point x="246" y="96" type="line"/>
      <point x="129" y="165" type="line"/>
      <point x="115" y="151" type="line"/>
    </contour>
    <contour>
      <point x="118" y="147" type="line"/>
      <point x="280" y="147" type="line"/>
      <point x="280" y="165" type="line"/>
      <point x="118" y="165" type="line"/>
    </contour>
    <contour>
      <point x="251" y="76" type="line"/>
      <point x="279" y="151" type="line"/>
      <point x="265" y="165" type="line"/>
      <point x="239" y="96" type="line"/>
    </contour>
    <contour>
      <point x="210" y="449" type="line"/>
      <point x="302" y="533" type="line"/>
      <point x="284" y="539" type="line"/>
      <point x="196" y="459" type="line"/>
    </contour>
    <contour>
      <point x="299" y="531" type="line"/>
      <point x="293" y="585" type="line"/>
      <point x="275" y="591" type="line"/>
      <point x="280" y="532" type="line"/>
    </contour>
  </outline>
</glyph>
<glyph name="B" format="2">
  <advance width="529"/>
  <unicode hex="0042"/>
  <anchor x="257" y="0" name="bottom"/>
  <anchor x="257" y="300" name="center"/>
  <anchor x="257" y="600" name="top"/>
  <outline>
    <contour>
      <point x="10" y="2" type="line"/>
      <point x="30" y="2" type="line"/>
      <point x="30" y="600" type="line"/>
      <point x="10" y="600" type="line"/>
    </contour>
    <contour>
      <point x="168" y="95" type="line"/>
      <point x="188" y="95" type="line"/>
      <point x="188" y="523" type="line"/>
      <point x="168" y="523" type="line"/>
    </contour>
    <contour>
      <point x="211" y="366" type="line"/>
      <point x="231" y="366" type="line"/>
      <point x="231" y="442" type="line"/>
      <point x="211" y="442" type="line"/>
    </contour>
    <contour>
      <point x="211" y="160" type="line"/>
      <point x="231" y="160" type="line"/>
      <point x="231" y="242" type="line"/>
      <point x="211" y="242" type="line"/>
    </contour>
    <contour>
      <point x="504" y="90" type="line"/>
      <point x="524" y="90" type="line"/>
      <point x="524" y="226" type="line"/>
      <point x="504" y="226" type="line"/>
    </contour>
    <contour>
      <point x="501" y="380" type="line"/>
      <point x="521" y="380" type="line"/>
      <point x="521" y="519" type="line"/>
      <point x="501" y="519" type="line"/>
    </contour>
    <contour>
      <point x="11" y="22" type="line"/>
      <point x="11" y="2" type="line"/>
      <point x="399" y="2" type="line"/>
      <point x="399" y="22" type="line"/>
    </contour>
    <contour>
      <point x="11" y="600" type="line"/>
      <point x="11" y="580" type="line"/>
      <point x="400" y="580" type="line"/>
      <point x="400" y="600" type="line"/>
    </contour>
    <contour>
      <point x="168" y="523" type="line"/>
      <point x="168" y="503" type="line"/>
      <point x="423" y="503" type="line"/>
      <point x="423" y="523" type="line"/>
    </contour>
    <contour>
      <point x="169" y="114" type="line"/>
      <point x="169" y="94" type="line"/>
      <point x="423" y="94" type="line"/>
      <point x="423" y="114" type="line"/>
    </contour>
    <contour>
      <point x="459" y="389" type="line"/>
      <point x="479" y="389" type="line"/>
      <point x="479" y="469" type="line"/>
      <point x="459" y="469" type="line"/>
    </contour>
    <contour>
      <point x="458" y="139" type="line"/>
      <point x="478" y="139" type="line"/>
      <point x="478" y="213" type="line"/>
      <point x="458" y="213" type="line"/>
    </contour>
    <contour>
      <point x="211" y="178" type="line"/>
      <point x="211" y="158" type="line"/>
      <point x="312" y="158" type="line"/>
      <point x="312" y="178" type="line"/>
    </contour>
    <contour>
      <point x="211" y="244" type="line"/>
      <point x="211" y="224" type="line"/>
      <point x="312" y="224" type="line"/>
      <point x="312" y="244" type="line"/>
    </contour>
    <contour>
      <point x="211" y="443" type="line"/>
      <point x="211" y="423" type="line"/>
      <point x="307" y="423" type="line"/>
      <point x="307" y="443" type="line"/>
    </contour>
    <contour>
      <point x="211" y="381" type="line"/>
      <point x="211" y="361" type="line"/>
      <point x="307" y="361" type="line"/>
      <point x="307" y="381" type="line"/>
    </contour>
    <contour>
      <point x="25" y="18" type="line"/>
      <point x="183" y="96" type="line"/>
      <point x="170" y="110" type="line"/>
      <point x="13" y="31" type="line"/>
    </contour>
    <contour>
      <point x="217" y="225" type="line"/>
      <point x="228" y="240" type="line"/>
      <point x="182" y="318" type="line"/>
      <point x="170" y="302" type="line"/>
    </contour>
    <contour>
      <point x="215" y="428" type="line"/>
      <point x="227" y="443" type="line"/>
      <point x="181" y="522" type="line"/>
      <point x="168" y="506" type="line"/>
    </contour>
    <contour>
      <point x="217" y="381" type="line"/>
      <point x="168" y="311" type="line"/>
      <point x="179" y="295" type="line"/>
      <point x="227" y="366" type="line"/>
    </contour>
    <contour>
      <point x="224" y="180" type="line"/>
      <point x="179" y="110" type="line"/>
      <point x="189" y="94" type="line"/>
      <point x="234" y="165" type="line"/>
    </contour>
    <contour>
      <point x="380" y="306" type="line"/>
      <point x="382" y="307" type="line"/>
      <point x="310" y="381" type="line"/>
      <point x="298" y="367" type="line"/>
      <point x="368" y="297" type="line"/>
      <point x="380" y="306" type="line"/>
      <point x="390" y="299" type="line"/>
      <point x="521" y="380" type="line"/>
      <point x="511" y="395" type="line"/>
      <point x="373" y="310" type="line"/>
      <point x="380" y="306" type="line"/>
      <point x="368" y="297" type="line"/>
      <point x="514" y="211" type="line"/>
      <point x="524" y="226" type="line"/>
      <point x="383" y="308" type="line"/>
      <point x="380" y="306" type="line"/>
      <point x="373" y="310" type="line"/>
      <point x="304" y="239" type="line"/>
      <point x="320" y="227" type="line"/>
      <point x="390" y="299" type="line"/>
    </contour>
    <contour>
      <point x="513" y="83" type="line"/>
      <point x="521" y="99" type="line"/>
      <point x="472" y="158" type="line"/>
      <point x="459" y="144" type="line"/>
    </contour>
    <contour>
      <point x="379" y="13" type="line"/>
      <point x="399" y="14" type="line"/>
      <point x="436" y="109" type="line"/>
      <point x="415" y="104" type="line"/>
    </contour>
    <contour>
      <point x="510" y="526" type="line"/>
      <point x="463" y="467" type="line"/>
      <point x="471" y="450" type="line"/>
      <point x="518" y="510" type="line"/>
    </contour>
    <contour>
      <point x="514" y="105" type="line"/>
      <point x="388" y="18" type="line"/>
      <point x="399" y="2" type="line"/>
      <point x="524" y="90" type="line"/>
    </contour>
    <contour>
      <point x="511" y="504" type="line"/>
      <point x="521" y="519" type="line"/>
      <point x="400" y="600" type="line"/>
      <point x="389" y="584" type="line"/>
    </contour>
    <contour>
      <point x="468" y="154" type="line"/>
      <point x="412" y="110" type="line"/>
      <point x="423" y="94" type="line"/>
      <point x="478" y="139" type="line"/>
    </contour>
    <contour>
      <point x="471" y="403" type="line"/>
      <point x="340" y="343" type="line"/>
      <point x="349" y="328" type="line"/>
      <point x="479" y="389" type="line"/>
    </contour>
    <contour>
      <point x="469" y="453" type="line"/>
      <point x="479" y="468" type="line"/>
      <point x="423" y="523" type="line"/>
      <point x="412" y="507" type="line"/>
    </contour>
    <contour>
      <point x="467" y="200" type="line"/>
      <point x="478" y="213" type="line"/>
      <point x="352" y="271" type="line"/>
      <point x="330" y="257" type="line"/>
    </contour>
    <contour>
      <point x="327" y="209" type="line"/>
      <point x="337" y="224" type="line"/>
      <point x="309" y="244" type="line"/>
      <point x="299" y="228" type="line"/>
    </contour>
    <contour>
      <point x="317" y="178" type="line"/>
      <point x="337" y="178" type="line"/>
      <point x="337" y="224" type="line"/>
      <point x="317" y="224" type="line"/>
    </contour>
    <contour>
      <point x="328" y="194" type="line"/>
      <point x="302" y="175" type="line"/>
      <point x="312" y="158" type="line"/>
      <point x="337" y="178" type="line"/>
    </contour>
    <contour>
      <point x="465" y="215" type="line"/>
      <point x="466" y="195" type="line"/>
      <point x="515" y="212" type="line"/>
      <point x="508" y="231" type="line"/>
    </contour>
    <contour>
      <point x="464" y="385" type="line"/>
      <point x="510" y="376" type="line"/>
      <point x="510" y="395" type="line"/>
      <point x="470" y="404" type="line"/>
    </contour>
    <contour>
      <point x="168" y="319" type="line"/>
      <point x="168" y="299" type="line"/>
      <point x="367" y="299" type="line"/>
      <point x="367" y="319" type="line"/>
    </contour>
    <contour>
      <point x="419" y="516" type="line"/>
      <point x="293" y="434" type="line"/>
      <point x="307" y="423" type="line"/>
      <point x="434" y="505" type="line"/>
    </contour>
    <contour>
      <point x="390" y="596" type="line"/>
      <point x="414" y="509" type="line"/>
      <point x="432" y="509" type="line"/>
      <point x="408" y="584" type="line"/>
    </contour>
    <contour>
      <point x="326" y="408" type="line"/>
      <point x="336" y="423" type="line"/>
      <point x="307" y="443" type="line"/>
      <point x="297" y="427" type="line"/>
    </contour>
    <contour>
      <point x="316" y="381" type="line"/>
      <point x="336" y="381" type="line"/>
      <point x="336" y="423" type="line"/>
      <point x="316" y="423" type="line"/>
    </contour>
    <contour>
      <point x="327" y="397" type="line"/>
      <point x="297" y="378" type="line"/>
      <point x="307" y="361" type="line"/>
      <point x="336" y="381" type="line"/>
    </contour>
    <contour>
      <point x="329" y="408" type="line"/>
      <point x="474" y="452" type="line"/>
      <point x="465" y="466" type="line"/>
      <point x="323" y="426" type="line"/>
    </contour>
    <contour>
      <point x="322" y="395" type="line"/>
      <point x="322" y="376" type="line"/>
      <point x="466" y="385" type="line"/>
      <point x="466" y="404" type="line"/>
    </contour>
    <contour>
      <point x="329" y="191" type="line"/>
      <point x="323" y="173" type="line"/>
      <point x="462" y="137" type="line"/>
      <point x="471" y="154" type="line"/>
    </contour>
    <contour>
      <point x="322" y="211" type="line"/>
      <point x="465" y="195" type="line"/>
      <point x="465" y="214" type="line"/>
      <point x="322" y="230" type="line"/>
    </contour>
    <contour>
      <point x="413" y="98" type="line"/>
      <point x="431" y="109" type="line"/>
      <point x="309" y="174" type="line"/>
      <point x="295" y="163" type="line"/>
    </contour>
    <contour>
      <point x="25" y="598" type="line"/>
      <point x="13" y="585" type="line"/>
      <point x="170" y="506" type="line"/>
      <point x="183" y="520" type="line"/>
    </contour>
  </outline>
</glyph>
<glyph name="D" format="2">
  <advance width="529"/>
  <unicode hex="0044"/>
  <anchor x="247" y="0" name="bottom"/>
  <anchor x="247" y="300" name="center"/>
  <anchor x="247" y="600" name="top"/>
  <outline>
    <contour>
      <point x="215" y="429" type="line"/>
      <point x="227" y="444" type="line"/>
      <point x="176" y="524" type="line"/>
      <point x="167" y="508" type="line"/>
    </contour>
    <contour>
      <point x="34" y="6" type="line"/>
      <point x="178" y="97" type="line"/>
      <point x="163" y="109" type="line"/>
      <point x="17" y="22" type="line"/>
    </contour>
    <contour>
      <point x="18" y="0" type="line"/>
      <point x="378" y="0" type="line"/>
      <point x="383" y="20" type="line"/>
      <point x="18" y="20" type="line"/>
    </contour>
    <contour>
      <point x="10" y="0" type="line"/>
      <point x="28" y="0" type="line"/>
      <point x="28" y="600" type="line"/>
      <point x="10" y="600" type="line"/>
    </contour>
    <contour>
      <point x="177" y="105" type="line"/>
      <point x="230" y="178" type="line"/>
      <point x="214" y="185" type="line"/>
      <point x="159" y="112" type="line"/>
    </contour>
    <contour>
      <point x="164" y="95" type="line"/>
      <point x="374" y="95" type="line"/>
      <point x="374" y="113" type="line"/>
      <point x="164" y="113" type="line"/>
    </contour>
    <contour>
      <point x="155" y="95" type="line"/>
      <point x="173" y="95" type="line"/>
      <point x="173" y="526" type="line"/>
      <point x="155" y="526" type="line"/>
    </contour>
    <contour>
      <point x="212" y="166" type="line"/>
      <point x="290" y="166" type="line"/>
      <point x="290" y="186" type="line"/>
      <point x="212" y="186" type="line"/>
    </contour>
    <contour>
      <point x="365" y="9" type="line"/>
      <point x="385" y="16" type="line"/>
      <point x="381" y="109" type="line"/>
      <point x="361" y="100" type="line"/>
    </contour>
    <contour>
      <point x="366" y="98" type="line"/>
      <point x="382" y="108" type="line"/>
      <point x="287" y="182" type="line"/>
      <point x="272" y="172" type="line"/>
    </contour>
    <contour>
      <point x="289" y="167" type="line"/>
      <point x="320" y="212" type="line"/>
      <point x="306" y="223" type="line"/>
      <point x="275" y="178" type="line"/>
    </contour>
    <contour>
      <point x="212" y="176" type="line"/>
      <point x="230" y="176" type="line"/>
      <point x="230" y="442" type="line"/>
      <point x="212" y="442" type="line"/>
    </contour>
    <contour>
      <point x="377" y="94" type="line"/>
      <point x="473" y="181" type="line"/>
      <point x="456" y="189" type="line"/>
      <point x="366" y="108" type="line"/>
    </contour>
    <contour>
      <point x="378" y="0" type="line"/>
      <point x="524" y="146" type="line"/>
      <point x="505" y="153" type="line"/>
      <point x="365" y="12" type="line"/>
    </contour>
    <contour>
      <point x="457" y="173" type="line"/>
      <point x="468" y="189" type="line"/>
      <point x="308" y="227" type="line"/>
      <point x="304" y="209" type="line"/>
    </contour>
    <contour>
      <point x="304" y="208" type="line"/>
      <point x="324" y="210" type="line"/>
      <point x="324" y="405" type="line"/>
      <point x="304" y="405" type="line"/>
    </contour>
    <contour>
      <point x="506" y="145" type="line"/>
      <point x="517" y="158" type="line"/>
      <point x="464" y="188" type="line"/>
      <point x="457" y="173" type="line"/>
    </contour>
    <contour>
      <point x="212" y="430" type="line"/>
      <point x="289" y="430" type="line"/>
      <point x="289" y="449" type="line"/>
      <point x="212" y="449" type="line"/>
    </contour>
    <contour>
      <point x="311" y="391" type="line"/>
      <point x="324" y="405" type="line"/>
      <point x="289" y="449" type="line"/>
      <point x="278" y="435" type="line"/>
    </contour>
    <contour>
      <point x="157" y="510" type="line"/>
      <point x="372" y="510" type="line"/>
      <point x="372" y="526" type="line"/>
      <point x="157" y="526" type="line"/>
    </contour>
    <contour>
      <point x="448" y="184" type="line"/>
      <point x="468" y="184" type="line"/>
      <point x="468" y="434" type="line"/>
      <point x="448" y="434" type="line"/>
    </contour>
    <contour>
      <point x="289" y="429" type="line"/>
      <point x="379" y="516" type="line"/>
      <point x="363" y="526" type="line"/>
      <point x="274" y="439" type="line"/>
    </contour>
    <contour>
      <point x="26" y="580" type="line"/>
      <point x="385" y="580" type="line"/>
      <point x="389" y="600" type="line"/>
      <point x="26" y="600" type="line"/>
    </contour>
    <contour>
      <point x="310" y="387" type="line"/>
      <point x="460" y="422" type="line"/>
      <point x="450" y="437" type="line"/>
      <point x="305" y="404" type="line"/>
    </contour>
    <contour>
      <point x="458" y="419" type="line"/>
      <point x="468" y="434" type="line"/>
      <point x="372" y="523" type="line"/>
      <point x="361" y="510" type="line"/>
    </contour>
    <contour>
      <point x="524" y="146" type="line"/>
      <point x="524" y="469" type="line"/>
      <point x="506" y="469" type="line"/>
      <point x="506" y="150" type="line"/>
    </contour>
    <contour>
      <point x="379" y="514" type="line"/>
      <point x="386" y="580" type="line"/>
      <point x="369" y="586" type="line"/>
      <point x="363" y="524" type="line"/>
    </contour>
    <contour>
      <point x="463" y="423" type="line"/>
      <point x="518" y="461" type="line"/>
      <point x="508" y="475" type="line"/>
      <point x="453" y="437" type="line"/>
    </contour>
    <contour>
      <point x="506" y="460" type="line"/>
      <point x="524" y="469" type="line"/>
      <point x="388" y="600" type="line"/>
      <point x="377" y="586" type="line"/>
    </contour>
    <contour>
      <point x="162" y="510" type="line"/>
      <point x="174" y="525" type="line"/>
      <point x="26" y="591" type="line"/>
      <point x="17" y="575" type="line"/>
    </contour>
  </outline>
</glyph>
<glyph name="F" format="2">
  <advance width="416"/>
  <unicode hex="0046"/>
  <anchor x="211" y="0" name="bottom"/>
  <anchor x="211" y="600" name="top"/>
  <outline>
    <contour>
      <point x="23" y="0" type="line"/>
      <point x="189" y="114" type="line"/>
      <point x="176" y="127" type="line"/>
      <point x="10" y="13" type="line"/>
    </contour>
    <contour>
      <point x="10" y="0" type="line"/>
      <point x="30" y="0" type="line"/>
      <point x="30" y="600" type="line"/>
      <point x="10" y="600" type="line"/>
    </contour>
    <contour>
      <point x="172" y="114" type="line"/>
      <point x="192" y="114" type="line"/>
      <point x="192" y="526" type="line"/>
      <point x="172" y="526" type="line"/>
    </contour>
    <contour>
      <point x="216" y="224" type="line"/>
      <point x="233" y="236" type="line"/>
      <point x="187" y="317" type="line"/>
      <point x="172" y="304" type="line"/>
    </contour>
    <contour>
      <point x="211" y="225" type="line"/>
      <point x="331" y="225" type="line"/>
      <point x="331" y="245" type="line"/>
      <point x="211" y="245" type="line"/>
    </contour>
    <contour>
      <point x="187" y="295" type="line"/>
      <point x="231" y="374" type="line"/>
      <point x="215" y="385" type="line"/>
      <point x="172" y="306" type="line"/>
    </contour>
    <contour>
      <point x="174" y="511" type="line"/>
      <point x="187" y="524" type="line"/>
      <point x="23" y="600" type="line"/>
      <point x="10" y="587" type="line"/>
    </contour>
    <contour>
      <point x="192" y="297" type="line"/>
      <point x="309" y="297" type="line"/>
      <point x="309" y="317" type="line"/>
      <point x="192" y="317" type="line"/>
    </contour>
    <contour>
      <point x="211" y="365" type="line"/>
      <point x="331" y="365" type="line"/>
      <point x="331" y="385" type="line"/>
      <point x="211" y="385" type="line"/>
    </contour>
    <contour>
      <point x="321" y="225" type="line"/>
      <point x="334" y="237" type="line"/>
      <point x="311" y="317" type="line"/>
      <point x="296" y="306" type="line"/>
    </contour>
    <contour>
      <point x="313" y="297" type="line"/>
      <point x="334" y="370" type="line"/>
      <point x="321" y="385" type="line"/>
      <point x="296" y="306" type="line"/>
    </contour>
    <contour>
      <point x="321" y="225" type="line"/>
      <point x="341" y="225" type="line"/>
      <point x="341" y="385" type="line"/>
      <point x="321" y="385" type="line"/>
    </contour>
    <contour>
      <point x="211" y="0" type="line"/>
      <point x="231" y="0" type="line"/>
      <point x="231" y="238" type="line"/>
      <point x="211" y="238" type="line"/>
    </contour>
    <contour>
      <point x="20" y="600" type="line"/>
      <point x="20" y="580" type="line"/>
      <point x="401" y="580" type="line"/>
      <point x="401" y="600" type="line"/>
    </contour>
    <contour>
      <point x="193" y="520" type="line"/>
      <point x="178" y="509" type="line"/>
      <point x="214" y="430" type="line"/>
      <point x="231" y="440" type="line"/>
    </contour>
    <contour>
      <point x="178" y="528" type="line"/>
      <point x="178" y="508" type="line"/>
      <point x="378" y="508" type="line"/>
      <point x="378" y="528" type="line"/>
    </contour>
    <contour>
      <point x="211" y="445" type="line"/>
      <point x="211" y="425" type="line"/>
      <point x="401" y="425" type="line"/>
      <point x="401" y="445" type="line"/>
    </contour>
    <contour>
      <point x="387" y="593" type="line"/>
      <point x="365" y="525" type="line"/>
      <point x="380" y="511" type="line"/>
      <point x="404" y="580" type="line"/>
    </contour>
    <contour>
      <point x="383" y="528" type="line"/>
      <point x="365" y="519" type="line"/>
      <point x="391" y="432" type="line"/>
      <point x="404" y="447" type="line"/>
    </contour>
    <contour>
      <point x="391" y="600" type="line"/>
      <point x="391" y="425" type="line"/>
      <point x="411" y="425" type="line"/>
      <point x="411" y="600" type="line"/>
    </contour>
    <contour>
      <point x="211" y="372" type="line"/>
      <point x="231" y="372" type="line"/>
      <point x="231" y="443" type="line"/>
      <point x="211" y="443" type="line"/>
    </contour>
    <contour>
      <point x="10" y="0" type="line"/>
      <point x="231" y="0" type="line"/>
      <point x="231" y="20" type="line"/>
      <point x="10" y="20" type="line"/>
    </contour>
    <contour>
      <point x="218" y="0" type="line"/>
      <point x="231" y="13" type="line"/>
      <point x="190" y="125" type="line"/>
      <point x="177" y="112" type="line"/>
    </contour>
  </outline>
</glyph>
<glyph name="H" format="2">
  <advance width="510"/>
  <unicode hex="0048"/>
  <anchor x="255" y="0" name="bottom"/>
  <anchor x="255" y="300" name="center"/>
  <anchor x="255" y="600" name="top"/>
  <anchor x="25" y="600" name="topleft"/>
  <outline>
    <contour>
      <point x="10" y="0" type="line"/>
      <point x="230" y="0" type="line"/>
      <point x="230" y="20" type="line"/>
      <point x="10" y="20" type="line"/>
    </contour>
    <contour>
      <point x="23" y="0" type="line"/>
      <point x="168" y="92" type="line"/>
      <point x="155" y="105" type="line"/>
      <point x="10" y="13" type="line"/>
    </contour>
    <contour>
      <point x="10" y="0" type="line"/>
      <point x="30" y="0" type="line"/>
      <point x="30" y="600" type="line"/>
      <point x="10" y="600" type="line"/>
    </contour>
    <contour>
      <point x="217" y="0" type="line"/>
      <point x="230" y="13" type="line"/>
      <point x="171" y="105" type="line"/>
      <point x="158" y="92" type="line"/>
    </contour>
    <contour>
      <point x="210" y="0" type="line"/>
      <point x="230" y="0" type="line"/>
      <point x="230" y="228" type="line"/>
      <point x="210" y="228" type="line"/>
    </contour>
    <contour>
      <point x="153" y="90" type="line"/>
      <point x="173" y="90" type="line"/>
      <point x="173" y="510" type="line"/>
      <point x="153" y="510" type="line"/>
    </contour>
    <contour>
      <point x="287" y="0" type="line"/>
      <point x="307" y="0" type="line"/>
      <point x="307" y="228" type="line"/>
      <point x="287" y="228" type="line"/>
    </contour>
    <contour>
      <point x="217" y="217" type="line"/>
      <point x="233" y="232" type="line"/>
      <point x="168" y="320" type="line"/>
      <point x="153" y="309" type="line"/>
    </contour>
    <contour>
      <point x="287" y="0" type="line"/>
      <point x="500" y="0" type="line"/>
      <point x="500" y="20" type="line"/>
      <point x="287" y="20" type="line"/>
    </contour>
    <contour>
      <point x="300" y="0" type="line"/>
      <point x="438" y="92" type="line"/>
      <point x="425" y="105" type="line"/>
      <point x="287" y="13" type="line"/>
    </contour>
    <contour>
      <point x="220" y="220" type="line"/>
      <point x="297" y="220" type="line"/>
      <point x="297" y="240" type="line"/>
      <point x="220" y="240" type="line"/>
    </contour>
    <contour>
      <point x="168" y="298" type="line"/>
      <point x="233" y="385" type="line"/>
      <point x="217" y="403" type="line"/>
      <point x="153" y="309" type="line"/>
    </contour>
    <contour>
      <point x="487" y="0" type="line"/>
      <point x="500" y="13" type="line"/>
      <point x="441" y="105" type="line"/>
      <point x="428" y="92" type="line"/>
    </contour>
    <contour>
      <point x="155" y="495" type="line"/>
      <point x="168" y="508" type="line"/>
      <point x="23" y="600" type="line"/>
      <point x="10" y="587" type="line"/>
    </contour>
    <contour>
      <point x="173" y="300" type="line"/>
      <point x="413" y="300" type="line"/>
      <point x="413" y="320" type="line"/>
      <point x="173" y="320" type="line"/>
    </contour>
    <contour>
      <point x="297" y="220" type="line"/>
      <point x="443" y="311" type="line"/>
      <point x="429" y="322" type="line"/>
      <point x="284" y="234" type="line"/>
    </contour>
    <contour>
      <point x="220" y="380" type="line"/>
      <point x="297" y="380" type="line"/>
      <point x="297" y="400" type="line"/>
      <point x="220" y="400" type="line"/>
    </contour>
    <contour>
      <point x="15" y="580" type="line"/>
      <point x="230" y="580" type="line"/>
      <point x="230" y="600" type="line"/>
      <point x="15" y="600" type="line"/>
    </contour>
    <contour>
      <point x="170" y="495" type="line"/>
      <point x="229" y="587" type="line"/>
      <point x="216" y="600" type="line"/>
      <point x="157" y="508" type="line"/>
    </contour>
    <contour>
      <point x="210" y="390" type="line"/>
      <point x="230" y="390" type="line"/>
      <point x="230" y="600" type="line"/>
      <point x="210" y="600" type="line"/>
    </contour>
    <contour>
      <point x="428" y="300" type="line"/>
      <point x="443" y="311" type="line"/>
      <point x="297" y="400" type="line"/>
      <point x="284" y="387" type="line"/>
    </contour>
    <contour>
      <point x="423" y="90" type="line"/>
      <point x="443" y="90" type="line"/>
      <point x="443" y="510" type="line"/>
      <point x="423" y="510" type="line"/>
    </contour>
    <contour>
      <point x="287" y="390" type="line"/>
      <point x="307" y="390" type="line"/>
      <point x="307" y="600" type="line"/>
      <point x="287" y="600" type="line"/>
    </contour>
    <contour>
      <point x="480" y="0" type="line"/>
      <point x="500" y="0" type="line"/>
      <point x="500" y="600" type="line"/>
      <point x="480" y="600" type="line"/>
    </contour>
    <contour>
      <point x="425" y="495" type="line"/>
      <point x="438" y="508" type="line"/>
      <point x="300" y="600" type="line"/>
      <point x="287" y="587" type="line"/>
    </contour>
    <contour>
      <point x="440" y="495" type="line"/>
      <point x="499" y="587" type="line"/>
      <point x="486" y="600" type="line"/>
      <point x="427" y="508" type="line"/>
    </contour>
    <contour>
      <point x="292" y="580" type="line"/>
      <point x="500" y="580" type="line"/>
      <point x="500" y="600" type="line"/>
      <point x="292" y="600" type="line"/>
    </contour>
  </outline>
</glyph>
<glyph name="I" format="2">
  <advance width="240"/>
  <unicode hex="0049"/>
  <anchor x="130" y="0" name="bottom"/>
  <anchor x="212" y="18" name="ogonek"/>
  <anchor x="130" y="600" name="top"/>
  <anchor x="25" y="600" name="topleft"/>
  <outline>
    <contour>
      <point x="10" y="0" type="line"/>
      <point x="230" y="0" type="line"/>
      <point x="230" y="20" type="line"/>
      <point x="10" y="20" type="line"/>
    </contour>
    <contour>
      <point x="23" y="0" type="line"/>
      <point x="168" y="92" type="line"/>
      <point x="155" y="105" type="line"/>
      <point x="10" y="13" type="line"/>
    </contour>
    <contour>
      <point x="217" y="0" type="line"/>
      <point x="230" y="13" type="line"/>
      <point x="171" y="105" type="line"/>
      <point x="158" y="92" type="line"/>
    </contour>
    <contour>
      <point x="10" y="0" type="line"/>
      <point x="30" y="0" type="line"/>
      <point x="30" y="600" type="line"/>
      <point x="10" y="600" type="line"/>
    </contour>
    <contour>
      <point x="153" y="90" type="line"/>
      <point x="173" y="90" type="line"/>
      <point x="173" y="510" type="line"/>
      <point x="153" y="510" type="line"/>
    </contour>
    <contour>
      <point x="210" y="0" type="line"/>
      <point x="230" y="0" type="line"/>
      <point x="230" y="600" type="line"/>
      <point x="210" y="600" type="line"/>
    </contour>
    <contour>
      <point x="155" y="495" type="line"/>
      <point x="168" y="508" type="line"/>
      <point x="23" y="600" type="line"/>
      <point x="10" y="587" type="line"/>
    </contour>
    <contour>
      <point x="15" y="580" type="line"/>
      <point x="230" y="580" type="line"/>
      <point x="230" y="600" type="line"/>
      <point x="15" y="600" type="line"/>
    </contour>
    <contour>
      <point x="170" y="495" type="line"/>
      <point x="229" y="587" type="line"/>
      <point x="216" y="600" type="line"/>
      <point x="157" y="508" type="line"/>
    </contour>
  </outline>
</glyph>
<glyph name="K" format="2">
  <advance width="576"/>
  <unicode hex="004B"/>
  <anchor x="291" y="0" name="bottom"/>
  <anchor x="291" y="600" name="top"/>
  <outline>
    <contour>
      <point x="10" y="-1" type="line"/>
      <point x="230" y="-1" type="line"/>
      <point x="230" y="19" type="line"/>
      <point x="10" y="19" type="line"/>
    </contour>
    <contour>
      <point x="23" y="-1" type="line"/>
      <point x="167" y="111" type="line"/>
      <point x="154" y="125" type="line"/>
      <point x="10" y="12" type="line"/>
    </contour>
    <contour>
      <point x="217" y="-1" type="line"/>
      <point x="230" y="12" type="line"/>
      <point x="170" y="125" type="line"/>
      <point x="157" y="111" type="line"/>
    </contour>
    <contour>
      <point x="10" y="-1" type="line"/>
      <point x="30" y="-1" type="line"/>
      <point x="30" y="600" type="line"/>
      <point x="10" y="600" type="line"/>
    </contour>
    <contour>
      <point x="152" y="109" type="line"/>
      <point x="172" y="109" type="line"/>
      <point x="172" y="490" type="line"/>
      <point x="152" y="490" type="line"/>
    </contour>
    <contour>
      <point x="210" y="-1" type="line"/>
      <point x="230" y="-1" type="line"/>
      <point x="230" y="600" type="line"/>
      <point x="210" y="600" type="line"/>
    </contour>
    <contour>
      <point x="154" y="475" type="line"/>
      <point x="167" y="488" type="line"/>
      <point x="23" y="600" type="line"/>
      <point x="10" y="587" type="line"/>
    </contour>
    <contour>
      <point x="15" y="580" type="line"/>
      <point x="230" y="580" type="line"/>
      <point x="230" y="600" type="line"/>
      <point x="15" y="600" type="line"/>
    </contour>
    <contour>
      <point x="169" y="475" type="line"/>
      <point x="229" y="587" type="line"/>
      <point x="216" y="600" type="line"/>
      <point x="156" y="488" type="line"/>
    </contour>
    <contour>
      <point x="412" y="339" type="line"/>
      <point x="571" y="600" type="line"/>
      <point x="550" y="600" type="line"/>
      <point x="397" y="350" type="line"/>
    </contour>
    <contour>
      <point x="352" y="580" type="line"/>
      <point x="557" y="580" type="line"/>
      <point x="557" y="600" type="line"/>
      <point x="360" y="600" type="line"/>
    </contour>
    <contour>
      <point x="229" y="339" type="line"/>
      <point x="380" y="598" type="line"/>
      <point x="360" y="600" type="line"/>
      <point x="223" y="363" type="line"/>
    </contour>
    <contour>
      <point x="566" y="-1" type="line"/>
      <point x="418" y="354" type="line"/>
      <point x="402" y="345" type="line"/>
      <point x="544" y="5" type="line"/>
    </contour>
    <contour>
      <point x="323" y="12" type="line"/>
      <point x="232" y="252" type="line"/>
      <point x="226" y="215" type="line"/>
      <point x="306" y="-1" type="line"/>
    </contour>
    <contour>
      <point x="439" y="96" type="line"/>
      <point x="540" y="5" type="line"/>
      <point x="552" y="19" type="line"/>
      <point x="448" y="115" type="line"/>
    </contour>
    <contour>
      <point x="306" y="-1" type="line"/>
      <point x="566" y="-1" type="line"/>
      <point x="547" y="19" type="line"/>
      <point x="306" y="19" type="line"/>
    </contour>
    <contour>
      <point x="322" y="8" type="line"/>
      <point x="456" y="94" type="line"/>
      <point x="443" y="110" type="line"/>
      <point x="301" y="18" type="line"/>
    </contour>
    <contour>
      <point x="461" y="98" type="line"/>
      <point x="366" y="323" type="line"/>
      <point x="346" y="324" type="line"/>
      <point x="440" y="95" type="line"/>
    </contour>
    <contour>
      <point x="362" y="316" type="line"/>
      <point x="491" y="525" type="line"/>
      <point x="472" y="531" type="line"/>
      <point x="346" y="324" type="line"/>
    </contour>
    <contour>
      <point x="475" y="508" type="line"/>
      <point x="557" y="581" type="line"/>
      <point x="554" y="599" type="line"/>
      <point x="474" y="529" type="line"/>
    </contour>
    <contour>
      <point x="408" y="361" type="line"/>
      <point x="360" y="332" type="line"/>
      <point x="360" y="314" type="line"/>
      <point x="419" y="345" type="line"/>
    </contour>
    <contour>
      <point x="357" y="588" type="line"/>
      <point x="475" y="518" type="line"/>
      <point x="487" y="530" type="line"/>
      <point x="375" y="596" type="line"/>
    </contour>
    <contour>
      <point x="357" y="333" type="line"/>
      <point x="218" y="246" type="line"/>
      <point x="230" y="233" type="line"/>
      <point x="366" y="318" type="line"/>
    </contour>
    <contour>
      <point x="355" y="315" type="line"/>
      <point x="366" y="330" type="line"/>
      <point x="222" y="364" type="line"/>
      <point x="220" y="344" type="line"/>
    </contour>
  </outline>
</glyph>
<glyph name="L" format="2">
  <advance width="435"/>
  <unicode hex="004C"/>
  <anchor x="230" y="0" name="bottom"/>
  <anchor x="120" y="300" name="center"/>
  <anchor x="120" y="600" name="top"/>
  <anchor x="315" y="600" name="topright"/>
  <outline>
    <contour>
      <point x="23" y="0" type="line"/>
      <point x="168" y="89" type="line"/>
      <point x="155" y="102" type="line"/>
      <point x="10" y="13" type="line"/>
    </contour>
    <contour>
      <point x="10" y="0" type="line"/>
      <point x="30" y="0" type="line"/>
      <point x="30" y="600" type="line"/>
      <point x="10" y="600" type="line"/>
    </contour>
    <contour>
      <point x="153" y="97" type="line"/>
      <point x="173" y="97" type="line"/>
      <point x="173" y="509" type="line"/>
      <point x="153" y="509" type="line"/>
    </contour>
    <contour>
      <point x="155" y="494" type="line"/>
      <point x="168" y="507" type="line"/>
      <point x="23" y="600" type="line"/>
      <point x="10" y="587" type="line"/>
    </contour>
    <contour>
      <point x="210" y="160" type="line"/>
      <point x="230" y="160" type="line"/>
      <point x="230" y="588" type="line"/>
      <point x="210" y="588" type="line"/>
    </contour>
    <contour>
      <point x="20" y="0" type="line"/>
      <point x="420" y="0" type="line"/>
      <point x="420" y="20" type="line"/>
      <point x="20" y="20" type="line"/>
    </contour>
    <contour>
      <point x="174" y="95" type="line"/>
      <point x="229" y="165" type="line"/>
      <point x="216" y="180" type="line"/>
      <point x="159" y="106" type="line"/>
    </contour>
    <contour>
      <point x="159" y="87" type="line"/>
      <point x="400" y="87" type="line"/>
      <point x="400" y="107" type="line"/>
      <point x="159" y="107" type="line"/>
    </contour>
    <contour>
      <point x="216" y="160" type="line"/>
      <point x="420" y="160" type="line"/>
      <point x="420" y="180" type="line"/>
      <point x="216" y="180" type="line"/>
    </contour>
    <contour>
      <point x="409" y="9" type="line"/>
      <point x="423" y="22" type="line"/>
      <point x="395" y="107" type="line"/>
      <point x="379" y="95" type="line"/>
    </contour>
    <contour>
      <point x="397" y="87" type="line"/>
      <point x="423" y="165" type="line"/>
      <point x="410" y="180" type="line"/>
      <point x="380" y="96" type="line"/>
    </contour>
    <contour>
      <point x="410" y="0" type="line"/>
      <point x="430" y="0" type="line"/>
      <point x="430" y="180" type="line"/>
      <point x="410" y="180" type="line"/>
    </contour>
    <contour>
      <point x="20" y="600" type="line"/>
      <point x="20" y="580" type="line"/>
      <point x="230" y="580" type="line"/>
      <point x="230" y="600" type="line"/>
    </contour>
    <contour>
      <point x="216" y="593" type="line"/>
      <point x="154" y="507" type="line"/>
      <point x="167" y="494" type="line"/>
      <point x="227" y="577" type="line"/>
    </contour>
  </outline>
</glyph>
<glyph name="M" format="2">
  <advance width="714"/>
  <unicode hex="004D"/>
  <anchor x="357" y="0" name="bottom"/>
  <anchor x="357" y="600" name="top"/>
  <outline>
    <contour>
      <point x="680" y="10" type="line"/>
      <point x="696" y="19" type="line"/>
      <point x="654" y="122" type="line"/>
      <point x="645" y="100" type="line"/>
    </contour>
    <contour>
      <point x="490" y="0" type="line"/>
      <point x="704" y="0" type="line"/>
      <point x="704" y="20" type="line"/>
      <point x="490" y="20" type="line"/>
    </contour>
    <contour>
      <point x="499" y="6" type="line"/>
      <point x="658" y="99" type="line"/>
      <point x="651" y="118" type="line"/>
      <point x="493" y="25" type="line"/>
    </contour>
    <contour>
      <point x="684" y="0" type="line"/>
      <point x="704" y="0" type="line"/>
      <point x="704" y="600" type="line"/>
      <point x="684" y="600" type="line"/>
    </contour>
    <contour>
      <point x="490" y="2" type="line"/>
      <point x="510" y="2" type="line"/>
      <point x="510" y="595" type="line"/>
      <point x="490" y="595" type="line"/>
    </contour>
    <contour>
      <point x="641" y="101" type="line"/>
      <point x="661" y="100" type="line"/>
      <point x="661" y="523" type="line"/>
      <point x="641" y="524" type="line"/>
    </contour>
    <contour>
      <point x="378" y="580" type="line"/>
      <point x="704" y="580" type="line"/>
      <point x="704" y="600" type="line"/>
      <point x="378" y="600" type="line"/>
    </contour>
    <contour>
      <point x="644" y="508" type="line"/>
      <point x="660" y="521" type="line"/>
      <point x="518" y="596" type="line"/>
      <point x="502" y="583" type="line"/>
    </contour>
    <contour>
      <point x="652" y="502" type="line"/>
      <point x="699" y="584" type="line"/>
      <point x="687" y="600" type="line"/>
      <point x="640" y="518" type="line"/>
    </contour>
    <contour>
      <point x="342" y="98" type="line"/>
      <point x="356" y="79" type="line"/>
      <point x="504" y="588" type="line"/>
      <point x="484" y="595" type="line"/>
    </contour>
    <contour>
      <point x="339" y="93" type="line"/>
      <point x="381" y="10" type="line"/>
      <point x="397" y="21" type="line"/>
      <point x="351" y="108" type="line"/>
    </contour>
    <contour>
      <point x="263" y="1" type="line"/>
      <point x="355" y="91" type="line"/>
      <point x="342" y="104" type="line"/>
      <point x="246" y="10" type="line"/>
    </contour>
    <contour>
      <point x="375" y="6" type="line"/>
      <point x="395" y="0" type="line"/>
      <point x="495" y="335" type="line"/>
      <point x="492" y="395" type="line"/>
    </contour>
    <contour>
      <point x="247" y="0" type="line"/>
      <point x="395" y="0" type="line"/>
      <point x="395" y="20" type="line"/>
      <point x="247" y="20" type="line"/>
    </contour>
    <contour>
      <point x="247" y="1" type="line"/>
      <point x="265" y="7" type="line"/>
      <point x="135" y="478" type="line"/>
      <point x="118" y="472" type="line"/>
    </contour>
    <contour>
      <point x="340" y="81" type="line"/>
      <point x="358" y="87" type="line"/>
      <point x="212" y="560" type="line"/>
      <point x="199" y="544" type="line"/>
    </contour>
    <contour>
      <point x="293" y="271" type="line"/>
      <point x="395" y="594" type="line"/>
      <point x="378" y="600" type="line"/>
      <point x="283" y="296" type="line"/>
    </contour>
    <contour>
      <point x="11" y="580" type="line"/>
      <point x="231" y="580" type="line"/>
      <point x="231" y="600" type="line"/>
      <point x="11" y="600" type="line"/>
    </contour>
    <contour>
      <point x="10" y="0" type="line"/>
      <point x="31" y="0" type="line"/>
      <point x="31" y="600" type="line"/>
      <point x="10" y="600" type="line"/>
    </contour>
    <contour>
      <point x="106" y="80" type="line"/>
      <point x="127" y="79" type="line"/>
      <point x="127" y="464" type="line"/>
      <point x="106" y="484" type="line"/>
    </contour>
    <contour>
      <point x="146" y="0" type="line"/>
      <point x="165" y="0" type="line"/>
      <point x="165" y="313" type="line"/>
      <point x="146" y="383" type="line"/>
    </contour>
    <contour>
      <point x="297" y="320" type="line"/>
      <point x="308" y="343" type="line"/>
      <point x="231" y="599" type="line"/>
      <point x="214" y="596" type="line"/>
    </contour>
    <contour>
      <point x="33" y="14" type="line"/>
      <point x="125" y="88" type="line"/>
      <point x="113" y="100" type="line"/>
      <point x="21" y="26" type="line"/>
    </contour>
    <contour>
      <point x="148" y="10" type="line"/>
      <point x="159" y="24" type="line"/>
      <point x="122" y="94" type="line"/>
      <point x="111" y="80" type="line"/>
    </contour>
    <contour>
      <point x="12" y="0" type="line"/>
      <point x="165" y="0" type="line"/>
      <point x="165" y="20" type="line"/>
      <point x="12" y="20" type="line"/>
    </contour>
    <contour>
      <point x="119" y="466" type="line"/>
      <point x="134" y="478" type="line"/>
      <point x="26" y="598" type="line"/>
      <point x="12" y="582" type="line"/>
    </contour>
    <contour>
      <point x="131" y="459" type="line"/>
      <point x="233" y="585" type="line"/>
      <point x="214" y="593" type="line"/>
      <point x="111" y="467" type="line"/>
    </contour>
  </outline>
</glyph>
<glyph name="S" format="2">
  <advance width="411"/>
  <unicode hex="0053"/>
  <anchor x="206" y="0" name="bottom"/>
  <anchor x="206" y="600" name="top"/>
  <outline>
    <contour>
      <point x="359" y="227" type="line"/>
      <point x="369" y="242" type="line"/>
      <point x="164" y="389" type="line"/>
      <point x="154" y="373" type="line"/>
    </contour>
    <contour>
      <point x="141" y="0" type="line"/>
      <point x="151" y="15" type="line"/>
      <point x="15" y="114" type="line"/>
      <point x="5" y="99" type="line"/>
    </contour>
    <contour>
      <point x="5" y="99" type="line"/>
      <point x="25" y="99" type="line"/>
      <point x="25" y="201" type="line"/>
      <point x="5" y="201" type="line"/>
    </contour>
    <contour>
      <point x="141" y="0" type="line"/>
      <point x="252" y="0" type="line"/>
      <point x="252" y="20" type="line"/>
      <point x="141" y="20" type="line"/>
    </contour>
    <contour>
      <point x="193" y="86" type="line"/>
      <point x="203" y="102" type="line"/>
      <point x="111" y="162" type="line"/>
      <point x="101" y="145" type="line"/>
    </contour>
    <contour>
      <point x="190" y="98" type="line"/>
      <point x="206" y="90" type="line"/>
      <point x="195" y="152" type="line"/>
      <point x="177" y="158" type="line"/>
    </contour>
    <contour>
      <point x="101" y="145" type="line"/>
      <point x="121" y="145" type="line"/>
      <point x="121" y="201" type="line"/>
      <point x="101" y="201" type="line"/>
    </contour>
    <contour>
      <point x="9" y="181" type="line"/>
      <point x="156" y="181" type="line"/>
      <point x="156" y="201" type="line"/>
      <point x="9" y="201" type="line"/>
    </contour>
    <contour>
      <point x="191" y="86" type="line"/>
      <point x="283" y="86" type="line"/>
      <point x="283" y="106" type="line"/>
      <point x="191" y="106" type="line"/>
    </contour>
    <contour>
      <point x="235" y="3" type="line"/>
      <point x="257" y="14" type="line"/>
      <point x="294" y="102" type="line"/>
      <point x="271" y="94" type="line"/>
    </contour>
    <contour>
      <point x="168" y="141" type="line"/>
      <point x="181" y="157" type="line"/>
      <point x="146" y="181" type="line"/>
      <point x="135" y="166" type="line"/>
    </contour>
    <contour>
      <point x="135" y="166" type="line"/>
      <point x="156" y="166" type="line"/>
      <point x="156" y="200" type="line"/>
      <point x="135" y="200" type="line"/>
    </contour>
    <contour>
      <point x="168" y="141" type="line"/>
      <point x="206" y="141" type="line"/>
      <point x="206" y="162" type="line"/>
      <point x="168" y="162" type="line"/>
    </contour>
    <contour>
      <point x="206" y="141" type="line"/>
      <point x="230" y="161" type="line"/>
      <point x="219" y="177" type="line"/>
      <point x="195" y="158" type="line"/>
    </contour>
    <contour>
      <point x="220" y="182" type="line"/>
      <point x="230" y="197" type="line"/>
      <point x="15" y="349" type="line"/>
      <point x="5" y="334" type="line"/>
    </contour>
    <contour>
      <point x="210" y="161" type="line"/>
      <point x="230" y="161" type="line"/>
      <point x="230" y="197" type="line"/>
      <point x="210" y="197" type="line"/>
    </contour>
    <contour>
      <point x="283" y="86" type="line"/>
      <point x="370" y="153" type="line"/>
      <point x="360" y="168" type="line"/>
      <point x="271" y="102" type="line"/>
    </contour>
    <contour>
      <point x="5" y="334" type="line"/>
      <point x="25" y="334" type="line"/>
      <point x="25" y="485" type="line"/>
      <point x="5" y="485" type="line"/>
    </contour>
    <contour>
      <point x="252" y="0" type="line"/>
      <point x="406" y="122" type="line"/>
      <point x="396" y="137" type="line"/>
      <point x="241" y="16" type="line"/>
    </contour>
    <contour>
      <point x="394" y="115" type="line"/>
      <point x="399" y="136" type="line"/>
      <point x="362" y="171" type="line"/>
      <point x="357" y="149" type="line"/>
    </contour>
    <contour>
      <point x="349" y="156" type="line"/>
      <point x="369" y="156" type="line"/>
      <point x="369" y="244" type="line"/>
      <point x="349" y="244" type="line"/>
    </contour>
    <contour>
      <point x="154" y="373" type="line"/>
      <point x="174" y="373" type="line"/>
      <point x="174" y="469" type="line"/>
      <point x="154" y="469" type="line"/>
    </contour>
    <contour>
      <point x="172" y="370" type="line"/>
      <point x="235" y="401" type="line"/>
      <point x="229" y="417" type="line"/>
      <point x="166" y="387" type="line"/>
    </contour>
    <contour>
      <point x="231" y="429" type="line"/>
      <point x="234" y="446" type="line"/>
      <point x="168" y="474" type="line"/>
      <point x="164" y="457" type="line"/>
    </contour>
    <contour>
      <point x="16" y="469" type="line"/>
      <point x="143" y="584" type="line"/>
      <point x="131" y="600" type="line"/>
      <point x="5" y="485" type="line"/>
    </contour>
    <contour>
      <point x="352" y="228" type="line"/>
      <point x="398" y="273" type="line"/>
      <point x="391" y="290" type="line"/>
      <point x="345" y="245" type="line"/>
    </contour>
    <contour>
      <point x="386" y="122" type="line"/>
      <point x="406" y="122" type="line"/>
      <point x="406" y="284" type="line"/>
      <point x="386" y="284" type="line"/>
    </contour>
    <contour>
      <point x="214" y="403" type="line"/>
      <point x="234" y="403" type="line"/>
      <point x="234" y="448" type="line"/>
      <point x="214" y="448" type="line"/>
    </contour>
    <contour>
      <point x="164" y="454" type="line"/>
      <point x="225" y="529" type="line"/>
      <point x="215" y="544" type="line"/>
      <point x="154" y="469" type="line"/>
    </contour>
    <contour>
      <point x="396" y="269" type="line"/>
      <point x="406" y="284" type="line"/>
      <point x="224" y="418" type="line"/>
      <point x="214" y="402" type="line"/>
    </contour>
    <contour>
      <point x="227" y="432" type="line"/>
      <point x="269" y="453" type="line"/>
      <point x="249" y="462" type="line"/>
      <point x="216" y="447" type="line"/>
    </contour>
    <contour>
      <point x="242" y="446" type="line"/>
      <point x="241" y="446" type="line"/>
      <point x="246" y="461" type="line"/>
      <point x="247" y="461" type="line"/>
    </contour>
    <contour>
      <point x="269" y="411" type="line"/>
      <point x="289" y="411" type="line"/>
      <point x="289" y="444" type="line"/>
      <point x="269" y="444" type="line"/>
    </contour>
    <contour>
      <point x="280" y="429" type="line"/>
      <point x="291" y="444" type="line"/>
      <point x="248" y="461" type="line"/>
      <point x="233" y="452" type="line"/>
    </contour>
    <contour>
      <point x="230" y="446" type="line"/>
      <point x="249" y="446" type="line"/>
      <point x="275" y="534" type="line"/>
      <point x="254" y="534" type="line"/>
    </contour>
    <contour>
      <point x="215" y="524" type="line"/>
      <point x="271" y="524" type="line"/>
      <point x="271" y="544" type="line"/>
      <point x="215" y="544" type="line"/>
    </contour>
    <contour>
      <point x="269" y="411" type="line"/>
      <point x="390" y="411" type="line"/>
      <point x="390" y="431" type="line"/>
      <point x="269" y="431" type="line"/>
    </contour>
    <contour>
      <point x="334" y="472" type="line"/>
      <point x="349" y="483" type="line"/>
      <point x="271" y="543" type="line"/>
      <point x="265" y="525" type="line"/>
    </contour>
    <contour>
      <point x="131" y="580" type="line"/>
      <point x="253" y="580" type="line"/>
      <point x="253" y="600" type="line"/>
      <point x="131" y="600" type="line"/>
    </contour>
    <contour>
      <point x="342" y="484" type="line"/>
      <point x="350" y="468" type="line"/>
      <point x="381" y="485" type="line"/>
      <point x="374" y="501" type="line"/>
    </contour>
    <contour>
      <point x="274" y="534" type="line"/>
      <point x="263" y="589" type="line"/>
      <point x="244" y="595" type="line"/>
      <point x="254" y="534" type="line"/>
    </contour>
    <contour>
      <point x="370" y="411" type="line"/>
      <point x="390" y="411" type="line"/>
      <point x="390" y="493" type="line"/>
      <point x="370" y="493" type="line"/>
    </contour>
    <contour>
      <point x="380" y="478" type="line"/>
      <point x="390" y="493" type="line"/>
      <point x="253" y="600" type="line"/>
      <point x="243" y="585" type="line"/>
    </contour>
    <contour>
      <point x="206" y="90" type="line"/>
      <point x="190" y="98" type="line"/>
      <point x="133" y="19" type="line"/>
      <point x="150" y="13" type="line"/>
    </contour>
    <contour>
      <point x="350" y="468" type="line"/>
      <point x="342" y="484" type="line"/>
      <point x="276" y="446" type="line"/>
      <point x="283" y="430" type="line"/>
    </contour>
    <contour>
      <point x="166" y="457" type="line"/>
      <point x="169" y="474" type="line"/>
      <point x="15" y="486" type="line"/>
      <point x="11" y="469" type="line"/>
    </contour>
    <contour>
      <point x="15" y="335" type="line"/>
      <point x="172" y="370" type="line"/>
      <point x="166" y="386" type="line"/>
      <point x="9" y="352" type="line"/>
    </contour>
    <contour>
      <point x="222" y="182" type="line"/>
      <point x="351" y="229" type="line"/>
      <point x="345" y="246" type="line"/>
      <point x="216" y="200" type="line"/>
    </contour>
    <contour>
      <point x="354" y="150" type="line"/>
      <point x="359" y="168" type="line"/>
      <point x="219" y="173" type="line"/>
      <point x="214" y="154" type="line"/>
    </contour>
  </outline>
</glyph>
<glyph name="U" format="2">
  <advance width="495"/>
  <unicode hex="0055"/>
  <anchor x="235" y="0" name="bottom"/>
  <anchor x="324" y="18" name="ogonek"/>
  <anchor x="255" y="600" name="top"/>
  <anchor x="470" y="600" name="topright"/>
  <outline>
    <contour>
      <point x="5" y="600" type="line"/>
      <point x="5" y="173" type="line"/>
      <point x="25" y="173" type="line"/>
      <point x="25" y="600" type="line"/>
    </contour>
    <contour>
      <point x="205" y="600" type="line"/>
      <point x="205" y="203" type="line"/>
      <point x="225" y="203" type="line"/>
      <point x="225" y="600" type="line"/>
    </contour>
    <contour>
      <point x="305" y="600" type="line"/>
      <point x="305" y="203" type="line"/>
      <point x="325" y="203" type="line"/>
      <point x="325" y="600" type="line"/>
    </contour>
    <contour>
      <point x="465" y="600" type="line"/>
      <point x="465" y="174" type="line"/>
      <point x="485" y="174" type="line"/>
      <point x="485" y="600" type="line"/>
    </contour>
    <contour>
      <point x="5" y="600" type="line"/>
      <point x="5" y="580" type="line"/>
      <point x="225" y="580" type="line"/>
      <point x="225" y="600" type="line"/>
    </contour>
    <contour>
      <point x="305" y="600" type="line"/>
      <point x="305" y="580" type="line"/>
      <point x="485" y="580" type="line"/>
      <point x="485" y="600" type="line"/>
    </contour>
    <contour>
      <point x="150" y="20" type="line"/>
      <point x="150" y="0" type="line"/>
      <point x="330" y="0" type="line"/>
      <point x="330" y="20" type="line"/>
    </contour>
    <contour>
      <point x="5" y="174" type="line"/>
      <point x="150" y="0" type="line"/>
      <point x="165" y="13" type="line"/>
      <point x="20" y="188" type="line"/>
    </contour>
    <contour>
      <point x="315" y="13" type="line"/>
      <point x="330" y="0" type="line"/>
      <point x="485" y="174" type="line"/>
      <point x="470" y="188" type="line"/>
    </contour>
    <contour>
      <point x="145" y="500" type="line"/>
      <point x="145" y="183" type="line"/>
      <point x="165" y="183" type="line"/>
      <point x="165" y="500" type="line"/>
    </contour>
    <contour>
      <point x="425" y="520" type="line"/>
      <point x="425" y="194" type="line"/>
      <point x="445" y="194" type="line"/>
      <point x="445" y="520" type="line"/>
    </contour>
    <contour>
      <point x="207" y="595" type="line"/>
      <point x="147" y="498" type="line"/>
      <point x="159" y="482" type="line"/>
      <point x="219" y="579" type="line"/>
    </contour>
    <contour>
      <point x="154" y="484" type="line"/>
      <point x="166" y="500" type="line"/>
      <point x="21" y="597" type="line"/>
      <point x="9" y="581" type="line"/>
    </contour>
    <contour>
      <point x="243" y="185" type="line"/>
      <point x="243" y="165" type="line"/>
      <point x="300" y="165" type="line"/>
      <point x="300" y="185" type="line"/>
    </contour>
    <contour>
      <point x="250" y="103" type="line"/>
      <point x="250" y="83" type="line"/>
      <point x="364" y="83" type="line"/>
      <point x="364" y="103" type="line"/>
    </contour>
    <contour>
      <point x="469" y="598" type="line"/>
      <point x="429" y="520" type="line"/>
      <point x="441" y="504" type="line"/>
      <point x="481" y="582" type="line"/>
    </contour>
    <contour>
      <point x="434" y="504" type="line"/>
      <point x="446" y="520" type="line"/>
      <point x="321" y="597" type="line"/>
      <point x="309" y="581" type="line"/>
    </contour>
    <contour>
      <point x="6" y="193" type="line"/>
      <point x="6" y="173" type="line"/>
      <point x="165" y="173" type="line"/>
      <point x="165" y="193" type="line"/>
    </contour>
    <contour>
      <point x="251" y="99" type="line"/>
      <point x="149" y="19" type="line"/>
      <point x="165" y="8" type="line"/>
      <point x="268" y="88" type="line"/>
    </contour>
    <contour>
      <point x="240" y="184" type="line"/>
      <point x="247" y="101" type="line"/>
      <point x="263" y="90" type="line"/>
      <point x="257" y="173" type="line"/>
    </contour>
    <contour>
      <point x="304" y="8" type="line"/>
      <point x="325" y="13" type="line"/>
      <point x="372" y="98" type="line"/>
      <point x="351" y="93" type="line"/>
    </contour>
    <contour>
      <point x="348" y="91" type="line"/>
      <point x="367" y="97" type="line"/>
      <point x="300" y="177" type="line"/>
      <point x="280" y="172" type="line"/>
    </contour>
    <contour>
      <point x="160" y="196" type="line"/>
      <point x="145" y="183" type="line"/>
      <point x="250" y="83" type="line"/>
      <point x="266" y="96" type="line"/>
    </contour>
    <contour>
      <point x="438" y="207" type="line"/>
      <point x="433" y="187" type="line"/>
      <point x="471" y="164" type="line"/>
      <point x="476" y="184" type="line"/>
    </contour>
    <contour>
      <point x="221" y="215" type="line"/>
      <point x="205" y="203" type="line"/>
      <point x="243" y="165" type="line"/>
      <point x="259" y="177" type="line"/>
    </contour>
    <contour>
      <point x="364" y="83" type="line"/>
      <point x="444" y="193" type="line"/>
      <point x="429" y="206" type="line"/>
      <point x="348" y="96" type="line"/>
    </contour>
    <contour>
      <point x="300" y="165" type="line"/>
      <point x="325" y="203" type="line"/>
      <point x="309" y="215" type="line"/>
      <point x="284" y="177" type="line"/>
    </contour>
    <contour>
      <point x="154" y="174" type="line"/>
      <point x="226" y="199" type="line"/>
      <point x="221" y="218" type="line"/>
      <point x="149" y="193" type="line"/>
    </contour>
    <contour>
      <point x="316" y="217" type="line"/>
      <point x="311" y="198" type="line"/>
      <point x="431" y="187" type="line"/>
      <point x="436" y="206" type="line"/>
    </contour>
  </outline>
</glyph>
<glyph name="V" format="2">
  <advance width="545"/>
  <unicode hex="0056"/>
  <anchor x="273" y="0" name="bottom"/>
  <anchor x="273" y="600" name="top"/>
  <outline>
    <contour>
      <point x="2" y="600" type="line"/>
      <point x="177" y="0" type="line"/>
      <point x="197" y="5" type="line"/>
      <point x="23" y="600" type="line"/>
    </contour>
    <contour>
      <point x="185" y="5" type="line"/>
      <point x="319" y="108" type="line"/>
      <point x="308" y="127" type="line"/>
      <point x="174" y="23" type="line"/>
    </contour>
    <contour>
      <point x="177" y="0" type="line"/>
      <point x="392" y="0" type="line"/>
      <point x="392" y="20" type="line"/>
      <point x="177" y="20" type="line"/>
    </contour>
    <contour>
      <point x="387" y="5" type="line"/>
      <point x="398" y="23" type="line"/>
      <point x="307" y="127" type="line"/>
      <point x="296" y="108" type="line"/>
    </contour>
    <contour>
      <point x="291" y="108" type="line"/>
      <point x="309" y="117" type="line"/>
      <point x="187" y="529" type="line"/>
      <point x="166" y="529" type="line"/>
    </contour>
    <contour>
      <point x="176" y="509" type="line"/>
      <point x="187" y="527" type="line"/>
      <point x="18" y="597" type="line"/>
      <point x="7" y="579" type="line"/>
    </contour>
    <contour>
      <point x="314" y="208" type="line"/>
      <point x="331" y="221" type="line"/>
      <point x="222" y="600" type="line"/>
      <point x="203" y="597" type="line"/>
    </contour>
    <contour>
      <point x="8" y="580" type="line"/>
      <point x="222" y="580" type="line"/>
      <point x="222" y="600" type="line"/>
      <point x="8" y="600" type="line"/>
    </contour>
    <contour>
      <point x="364" y="46" type="line"/>
      <point x="489" y="532" type="line"/>
      <point x="470" y="538" type="line"/>
      <point x="348" y="66" type="line"/>
    </contour>
    <contour>
      <point x="186" y="511" type="line"/>
      <point x="225" y="580" type="line"/>
      <point x="212" y="597" type="line"/>
      <point x="173" y="528" type="line"/>
    </contour>
    <contour>
      <point x="312" y="109" type="line"/>
      <point x="427" y="594" type="line"/>
      <point x="408" y="600" type="line"/>
      <point x="292" y="114" type="line"/>
    </contour>
    <contour>
      <point x="392" y="0" type="line"/>
      <point x="543" y="600" type="line"/>
      <point x="523" y="600" type="line"/>
      <point x="372" y="5" type="line"/>
    </contour>
    <contour>
      <point x="474" y="516" type="line"/>
      <point x="489" y="531" type="line"/>
      <point x="423" y="593" type="line"/>
      <point x="405" y="584" type="line"/>
    </contour>
    <contour>
      <point x="479" y="515" type="line"/>
      <point x="537" y="584" type="line"/>
      <point x="526" y="599" type="line"/>
      <point x="468" y="530" type="line"/>
    </contour>
    <contour>
      <point x="408" y="580" type="line"/>
      <point x="536" y="580" type="line"/>
      <point x="536" y="600" type="line"/>
      <point x="408" y="600" type="line"/>
    </contour>
  </outline>
</glyph>
<glyph name="Y" format="2">
  <advance width="573"/>
  <unicode hex="0059"/>
  <anchor x="307" y="0" name="bottom"/>
  <anchor x="307" y="600" name="top"/>
  <anchor x="17" y="600" name="topleft"/>
  <outline>
    <contour>
      <point x="172" y="186" type="line"/>
      <point x="190" y="195" type="line"/>
      <point x="23" y="600" type="line"/>
      <point x="2" y="600" type="line"/>
    </contour>
    <contour>
      <point x="169" y="0" type="line"/>
      <point x="189" y="0" type="line"/>
      <point x="189" y="204" type="line"/>
      <point x="169" y="204" type="line"/>
    </contour>
    <contour>
      <point x="182" y="0" type="line"/>
      <point x="340" y="117" type="line"/>
      <point x="327" y="132" type="line"/>
      <point x="169" y="15" type="line"/>
    </contour>
    <contour>
      <point x="169" y="0" type="line"/>
      <point x="409" y="0" type="line"/>
      <point x="409" y="20" type="line"/>
      <point x="169" y="20" type="line"/>
    </contour>
    <contour>
      <point x="334" y="126" type="line"/>
      <point x="344" y="144" type="line"/>
      <point x="179" y="214" type="line"/>
      <point x="168" y="196" type="line"/>
    </contour>
    <contour>
      <point x="396" y="0" type="line"/>
      <point x="409" y="15" type="line"/>
      <point x="343" y="132" type="line"/>
      <point x="330" y="117" type="line"/>
    </contour>
    <contour>
      <point x="325" y="118" type="line"/>
      <point x="345" y="118" type="line"/>
      <point x="345" y="144" type="line"/>
      <point x="325" y="144" type="line"/>
    </contour>
    <contour>
      <point x="389" y="0" type="line"/>
      <point x="409" y="0" type="line"/>
      <point x="409" y="204" type="line"/>
      <point x="389" y="204" type="line"/>
    </contour>
    <contour>
      <point x="338" y="127" type="line"/>
      <point x="408" y="198" type="line"/>
      <point x="399" y="215" type="line"/>
      <point x="327" y="142" type="line"/>
    </contour>
    <contour>
      <point x="326" y="131" type="line"/>
      <point x="343" y="144" type="line"/>
      <point x="194" y="516" type="line"/>
      <point x="173" y="512" type="line"/>
    </contour>
    <contour>
      <point x="289" y="274" type="line"/>
      <point x="412" y="591" type="line"/>
      <point x="393" y="600" type="line"/>
      <point x="271" y="282" type="line"/>
    </contour>
    <contour>
      <point x="182" y="500" type="line"/>
      <point x="192" y="520" type="line"/>
      <point x="30" y="590" type="line"/>
      <point x="14" y="575" type="line"/>
    </contour>
    <contour>
      <point x="344" y="134" type="line"/>
      <point x="505" y="520" type="line"/>
      <point x="486" y="527" type="line"/>
      <point x="326" y="142" type="line"/>
    </contour>
    <contour>
      <point x="20" y="580" type="line"/>
      <point x="242" y="580" type="line"/>
      <point x="242" y="600" type="line"/>
      <point x="20" y="600" type="line"/>
    </contour>
    <contour>
      <point x="192" y="500" type="line"/>
      <point x="243" y="581" type="line"/>
      <point x="231" y="597" type="line"/>
      <point x="176" y="511" type="line"/>
    </contour>
    <contour>
      <point x="312" y="372" type="line"/>
      <point x="324" y="401" type="line"/>
      <point x="242" y="600" type="line"/>
      <point x="223" y="591" type="line"/>
    </contour>
    <contour>
      <point x="406" y="187" type="line"/>
      <point x="571" y="600" type="line"/>
      <point x="551" y="600" type="line"/>
      <point x="387" y="195" type="line"/>
    </contour>
    <contour>
      <point x="491" y="505" type="line"/>
      <point x="504" y="522" type="line"/>
      <point x="400" y="592" type="line"/>
      <point x="386" y="577" type="line"/>
    </contour>
    <contour>
      <point x="497" y="510" type="line"/>
      <point x="559" y="576" type="line"/>
      <point x="548" y="592" type="line"/>
      <point x="491" y="530" type="line"/>
    </contour>
    <contour>
      <point x="393" y="580" type="line"/>
      <point x="562" y="580" type="line"/>
      <point x="562" y="600" type="line"/>
      <point x="393" y="600" type="line"/>
    </contour>
  </outline>
</glyph>
<glyph name="backslash" format="2">
  <advance width="352"/>
  <unicode hex="005C"/>
  <outline>
    <contour>
      <point x="334" y="-40" type="line"/>
      <point x="352" y="-40" type="line"/>
      <point x="98" y="640" type="line"/>
      <point x="81" y="640" type="line"/>
    </contour>
    <contour>
      <point x="253" y="-40" type="line"/>
      <point x="271" y="-40" type="line"/>
      <point x="18" y="640" type="line"/>
      <point x="0" y="640" type="line"/>
    </contour>
    <contour>
      <point x="93" y="575" type="line"/>
      <point x="101" y="625" type="line"/>
      <point x="87" y="640" type="line"/>
      <point x="81" y="590" type="line"/>
    </contour>
    <contour>
      <point x="88" y="574" type="line"/>
      <point x="94" y="589" type="line"/>
      <point x="13" y="640" type="line"/>
      <point x="7" y="624" type="line"/>
    </contour>
    <contour>
      <point x="98" y="620" type="line"/>
      <point x="98" y="640" type="line"/>
      <point x="7" y="640" type="line"/>
      <point x="7" y="620" type="line"/>
    </contour>
    <contour>
      <point x="295" y="25" type="line"/>
      <point x="251" y="-25" type="line"/>
      <point x="265" y="-40" type="line"/>
      <point x="307" y="10" type="line"/>
    </contour>
    <contour>
      <point x="300" y="26" type="line"/>
      <point x="293" y="11" type="line"/>
      <point x="339" y="-40" type="line"/>
      <point x="345" y="-24" type="line"/>
    </contour>
    <contour>
      <point x="253" y="-20" type="line"/>
      <point x="253" y="-40" type="line"/>
      <point x="344" y="-40" type="line"/>
      <point x="344" y="-20" type="line"/>
    </contour>
    <contour>
      <point x="293" y="4" type="line"/>
      <point x="308" y="15" type="line"/>
      <point x="92" y="598" type="line"/>
      <point x="77" y="592" type="line"/>
    </contour>
  </outline>
</glyph>
<glyph name="exclamdown" format="2">
  <advance width="240"/>
  <unicode hex="00A1"/>
  <outline>
    <contour>
      <point x="10" y="0" type="line"/>
      <point x="30" y="0" type="line"/>
      <point x="95" y="410" type="line"/>
      <point x="75" y="410" type="line"/>
    </contour>
    <contour>
      <point x="31" y="5" type="line"/>
      <point x="162" y="89" type="line"/>
      <point x="149" y="104" type="line"/>
      <point x="18" y="20" type="line"/>
    </contour>
    <contour>
      <point x="19" y="0" type="line"/>
      <point x="220" y="0" type="line"/>
      <point x="220" y="20" type="line"/>
      <point x="19" y="20" type="line"/>
    </contour>
    <contour>
      <point x="208" y="5" type="line"/>
      <point x="221" y="20" type="line"/>
      <point x="164" y="104" type="line"/>
      <point x="151" y="89" type="line"/>
    </contour>
    <contour>
      <point x="147" y="87" type="line"/>
      <point x="167" y="87" type="line"/>
      <point x="167" y="400" type="line"/>
      <point x="147" y="400" type="line"/>
    </contour>
    <contour>
      <point x="210" y="0" type="line"/>
      <point x="230" y="0" type="line"/>
      <point x="166" y="410" type="line"/>
      <point x="146" y="410" type="line"/>
    </contour>
    <contour>
      <point x="75" y="390" type="line"/>
      <point x="166" y="390" type="line"/>
      <point x="166" y="410" type="line"/>
      <point x="75" y="410" type="line"/>
    </contour>
    <contour>
      <point x="51" y="435" type="line"/>
      <point x="168" y="504" type="line"/>
      <point x="159" y="524" type="line"/>
      <point x="37" y="449" type="line"/>
    </contour>
    <contour>
      <point x="37" y="435" type="line"/>
      <point x="57" y="435" type="line"/>
      <point x="57" y="600" type="line"/>
      <point x="37" y="600" type="line"/>
    </contour>
    <contour>
      <point x="40" y="435" type="line"/>
      <point x="202" y="435" type="line"/>
      <point x="202" y="453" type="line"/>
      <point x="40" y="453" type="line"/>
    </contour>
    <contour>
      <point x="158" y="511" type="line"/>
      <point x="167" y="531" type="line"/>
      <point x="51" y="600" type="line"/>
      <point x="37" y="586" type="line"/>
    </contour>
    <contour>
      <point x="187" y="435" type="line"/>
      <point x="201" y="449" type="line"/>
      <point x="173" y="524" type="line"/>
      <point x="161" y="504" type="line"/>
    </contour>
    <contour>
      <point x="158" y="509" type="line"/>
      <point x="174" y="509" type="line"/>
      <point x="174" y="526" type="line"/>
      <point x="158" y="526" type="line"/>
    </contour>
    <contour>
      <point x="182" y="435" type="line"/>
      <point x="202" y="435" type="line"/>
      <point x="202" y="600" type="line"/>
      <point x="182" y="600" type="line"/>
    </contour>
    <contour>
      <point x="37" y="582" type="line"/>
      <point x="202" y="582" type="line"/>
      <point x="202" y="600" type="line"/>
      <point x="37" y="600" type="line"/>
    </contour>
    <contour>
      <point x="173" y="510" type="line"/>
      <point x="202" y="586" type="line"/>
      <point x="188" y="600" type="line"/>
      <point x="161" y="530" type="line"/>
    </contour>
  </outline>
</glyph>
<glyph name="questiondown" format="2">
  <advance width="401"/>
  <unicode hex="00BF"/>
  <outline>
    <contour>
      <point x="227" y="290" type="line"/>
      <point x="129" y="192" type="line"/>
      <point x="142" y="179" type="line"/>
      <point x="237" y="275" type="line"/>
    </contour>
    <contour>
      <point x="146" y="326" type="line"/>
      <point x="5" y="239" type="line"/>
      <point x="17" y="223" type="line"/>
      <point x="158" y="310" type="line"/>
    </contour>
    <contour>
      <point x="160" y="410" type="line"/>
      <point x="136" y="309" type="line"/>
      <point x="156" y="309" type="line"/>
      <point x="180" y="410" type="line"/>
    </contour>
    <contour>
      <point x="5" y="239" type="line"/>
      <point x="5" y="85" type="line"/>
      <point x="25" y="85" type="line"/>
      <point x="25" y="239" type="line"/>
    </contour>
    <contour>
      <point x="232" y="410" type="line"/>
      <point x="217" y="410" type="line"/>
      <point x="217" y="391" type="line"/>
      <point x="232" y="391" type="line"/>
    </contour>
    <contour>
      <point x="218" y="403" type="line"/>
      <point x="218" y="275" type="line"/>
      <point x="238" y="275" type="line"/>
      <point x="238" y="403" type="line"/>
    </contour>
    <contour>
      <point x="127" y="196" type="line"/>
      <point x="127" y="115" type="line"/>
      <point x="147" y="115" type="line"/>
      <point x="147" y="196" type="line"/>
    </contour>
    <contour>
      <point x="145" y="200" type="line"/>
      <point x="139" y="182" type="line"/>
      <point x="188" y="182" type="line"/>
      <point x="194" y="200" type="line"/>
    </contour>
    <contour>
      <point x="190" y="171" type="line"/>
      <point x="131" y="123" type="line"/>
      <point x="141" y="110" type="line"/>
      <point x="193" y="154" type="line"/>
    </contour>
    <contour>
      <point x="16" y="101" type="line"/>
      <point x="5" y="85" type="line"/>
      <point x="121" y="0" type="line"/>
      <point x="133" y="16" type="line"/>
    </contour>
    <contour>
      <point x="221" y="291" type="line"/>
      <point x="223" y="271" type="line"/>
      <point x="257" y="272" type="line"/>
      <point x="256" y="291" type="line"/>
    </contour>
    <contour>
      <point x="227" y="410" type="line"/>
      <point x="246" y="276" type="line"/>
      <point x="266" y="275" type="line"/>
      <point x="247" y="410" type="line"/>
    </contour>
    <contour>
      <point x="173" y="196" type="line"/>
      <point x="173" y="152" type="line"/>
      <point x="193" y="152" type="line"/>
      <point x="193" y="196" type="line"/>
    </contour>
    <contour>
      <point x="137" y="130" type="line"/>
      <point x="125" y="115" type="line"/>
      <point x="197" y="56" type="line"/>
      <point x="209" y="71" type="line"/>
    </contour>
    <contour>
      <point x="256" y="291" type="line"/>
      <point x="173" y="197" type="line"/>
      <point x="183" y="181" type="line"/>
      <point x="266" y="275" type="line"/>
    </contour>
    <contour>
      <point x="186" y="168" type="line"/>
      <point x="175" y="153" type="line"/>
      <point x="201" y="133" type="line"/>
      <point x="211" y="148" type="line"/>
    </contour>
    <contour>
      <point x="201" y="154" type="line"/>
      <point x="201" y="133" type="line"/>
      <point x="231" y="133" type="line"/>
      <point x="231" y="154" type="line"/>
    </contour>
    <contour>
      <point x="242" y="194" type="line"/>
      <point x="242" y="156" type="line"/>
      <point x="262" y="156" type="line"/>
      <point x="262" y="194" type="line"/>
    </contour>
    <contour>
      <point x="253" y="171" type="line"/>
      <point x="222" y="148" type="line"/>
      <point x="233" y="133" type="line"/>
      <point x="264" y="156" type="line"/>
    </contour>
    <contour>
      <point x="214" y="143" type="line"/>
      <point x="290" y="62" type="line"/>
      <point x="307" y="71" type="line"/>
      <point x="235" y="150" type="line"/>
    </contour>
    <contour>
      <point x="199" y="76" type="line"/>
      <point x="197" y="56" type="line"/>
      <point x="294" y="56" type="line"/>
      <point x="294" y="76" type="line"/>
    </contour>
    <contour>
      <point x="242" y="209" type="line"/>
      <point x="242" y="189" type="line"/>
      <point x="396" y="189" type="line"/>
      <point x="396" y="209" type="line"/>
    </contour>
    <contour>
      <point x="373" y="138" type="line"/>
      <point x="288" y="70" type="line"/>
      <point x="300" y="54" type="line"/>
      <point x="384" y="123" type="line"/>
    </contour>
    <contour>
      <point x="121" y="20" type="line"/>
      <point x="121" y="0" type="line"/>
      <point x="287" y="0" type="line"/>
      <point x="284" y="20" type="line"/>
    </contour>
    <contour>
      <point x="372" y="124" type="line"/>
      <point x="380" y="99" type="line"/>
      <point x="387" y="115" type="line"/>
      <point x="380" y="140" type="line"/>
    </contour>
    <contour>
      <point x="306" y="72" type="line"/>
      <point x="287" y="66" type="line"/>
      <point x="275" y="5" type="line"/>
      <point x="293" y="11" type="line"/>
    </contour>
    <contour>
      <point x="376" y="189" type="line"/>
      <point x="376" y="107" type="line"/>
      <point x="396" y="104" type="line"/>
      <point x="396" y="189" type="line"/>
    </contour>
    <contour>
      <point x="386" y="122" type="line"/>
      <point x="274" y="15" type="line"/>
      <point x="287" y="0" type="line"/>
      <point x="396" y="104" type="line"/>
    </contour>
    <contour>
      <point x="379" y="139" type="line"/>
      <point x="256" y="170" type="line"/>
      <point x="249" y="154" type="line"/>
      <point x="371" y="123" type="line"/>
    </contour>
    <contour>
      <point x="134" y="128" type="line"/>
      <point x="11" y="101" type="line"/>
      <point x="15" y="83" type="line"/>
      <point x="141" y="109" type="line"/>
    </contour>
    <contour>
      <point x="18" y="241" type="line"/>
      <point x="12" y="224" type="line"/>
      <point x="138" y="181" type="line"/>
      <point x="145" y="200" type="line"/>
    </contour>
    <contour>
      <point x="144" y="326" type="line"/>
      <point x="138" y="308" type="line"/>
      <point x="217" y="273" type="line"/>
      <point x="223" y="290" type="line"/>
    </contour>
    <contour>
      <point x="229" y="410" type="line"/>
      <point x="164" y="410" type="line"/>
      <point x="164" y="391" type="line"/>
      <point x="229" y="391" type="line"/>
    </contour>
    <contour>
      <point x="286" y="600" type="line"/>
      <point x="121" y="600" type="line"/>
      <point x="121" y="582" type="line"/>
      <point x="286" y="582" type="line"/>
    </contour>
    <contour>
      <point x="272" y="600" type="line"/>
      <point x="246" y="531" type="line"/>
      <point x="258" y="511" type="line"/>
      <point x="286" y="586" type="line"/>
    </contour>
    <contour>
      <point x="135" y="600" type="line"/>
      <point x="121" y="586" type="line"/>
      <point x="243" y="510" type="line"/>
      <point x="252" y="530" type="line"/>
    </contour>
    <contour>
      <point x="286" y="600" type="line"/>
      <point x="266" y="600" type="line"/>
      <point x="266" y="435" type="line"/>
      <point x="286" y="435" type="line"/>
    </contour>
    <contour>
      <point x="258" y="526" type="line"/>
      <point x="242" y="526" type="line"/>
      <point x="242" y="509" type="line"/>
      <point x="258" y="509" type="line"/>
    </contour>
    <contour>
      <point x="141" y="600" type="line"/>
      <point x="121" y="600" type="line"/>
      <point x="121" y="435" type="line"/>
      <point x="141" y="435" type="line"/>
    </contour>
    <contour>
      <point x="257" y="524" type="line"/>
      <point x="245" y="504" type="line"/>
      <point x="272" y="435" type="line"/>
      <point x="286" y="449" type="line"/>
    </contour>
    <contour>
      <point x="283" y="453" type="line"/>
      <point x="121" y="453" type="line"/>
      <point x="121" y="435" type="line"/>
      <point x="283" y="435" type="line"/>
    </contour>
    <contour>
      <point x="243" y="524" type="line"/>
      <point x="122" y="449" type="line"/>
      <point x="136" y="435" type="line"/>
      <point x="252" y="504" type="line"/>
    </contour>
    <contour>
      <point x="191" y="151" type="line"/>
      <point x="190" y="67" type="line"/>
      <point x="208" y="61" type="line"/>
      <point x="210" y="145" type="line"/>
    </contour>
    <contour>
      <point x="193" y="74" type="line"/>
      <point x="108" y="15" type="line"/>
      <point x="126" y="9" type="line"/>
      <point x="212" y="68" type="line"/>
    </contour>
  </outline>
</glyph>
<glyph name="Oslash" format="2">
  <advance width="490"/>
  <unicode hex="00D8"/>
  <anchor x="245" y="0" name="bottom"/>
  <anchor x="245" y="600" name="top"/>
  <outline>
    <contour>
      <point x="76" y="91" type="line"/>
      <point x="88" y="107" type="line"/>
      <point x="19" y="164" type="line"/>
      <point x="5" y="150" type="line"/>
    </contour>
    <contour>
      <point x="25" y="147" type="line"/>
      <point x="185" y="149" type="line"/>
      <point x="179" y="166" type="line"/>
      <point x="19" y="164" type="line"/>
    </contour>
    <contour>
      <point x="227" y="0" type="line"/>
      <point x="279" y="98" type="line"/>
      <point x="264" y="107" type="line"/>
      <point x="205" y="0" type="line"/>
    </contour>
    <contour>
      <point x="255" y="0" type="line"/>
      <point x="335" y="0" type="line"/>
      <point x="335" y="18" type="line"/>
      <point x="255" y="18" type="line"/>
    </contour>
    <contour>
      <point x="264" y="89" type="line"/>
      <point x="278" y="103" type="line"/>
      <point x="186" y="169" type="line"/>
      <point x="172" y="155" type="line"/>
    </contour>
    <contour>
      <point x="5" y="150" type="line"/>
      <point x="25" y="150" type="line"/>
      <point x="25" y="460" type="line"/>
      <point x="5" y="460" type="line"/>
    </contour>
    <contour>
      <point x="264" y="89" type="line"/>
      <point x="360" y="89" type="line"/>
      <point x="360" y="107" type="line"/>
      <point x="264" y="107" type="line"/>
    </contour>
    <contour>
      <point x="323" y="9" type="line"/>
      <point x="342" y="18" type="line"/>
      <point x="364" y="107" type="line"/>
      <point x="345" y="98" type="line"/>
    </contour>
    <contour>
      <point x="172" y="155" type="line"/>
      <point x="192" y="155" type="line"/>
      <point x="192" y="435" type="line"/>
      <point x="172" y="435" type="line"/>
    </contour>
    <contour>
      <point x="350" y="93" type="line"/>
      <point x="363" y="103" type="line"/>
      <point x="319" y="173" type="line"/>
      <point x="306" y="163" type="line"/>
    </contour>
    <contour>
      <point x="179" y="424" type="line"/>
      <point x="185" y="441" type="line"/>
      <point x="25" y="463" type="line"/>
      <point x="19" y="446" type="line"/>
    </contour>
    <contour>
      <point x="360" y="89" type="line"/>
      <point x="445" y="175" type="line"/>
      <point x="431" y="189" type="line"/>
      <point x="346" y="103" type="line"/>
    </contour>
    <contour>
      <point x="335" y="0" type="line"/>
      <point x="485" y="150" type="line"/>
      <point x="471" y="164" type="line"/>
      <point x="321" y="14" type="line"/>
    </contour>
    <contour>
      <point x="430" y="171" type="line"/>
      <point x="436" y="187" type="line"/>
      <point x="336" y="204" type="line"/>
      <point x="330" y="188" type="line"/>
    </contour>
    <contour>
      <point x="297" y="412" type="line"/>
      <point x="303" y="428" type="line"/>
      <point x="192" y="437" type="line"/>
      <point x="186" y="421" type="line"/>
    </contour>
    <contour>
      <point x="19" y="446" type="line"/>
      <point x="159" y="586" type="line"/>
      <point x="145" y="600" type="line"/>
      <point x="5" y="460" type="line"/>
    </contour>
    <contour>
      <point x="186" y="421" type="line"/>
      <point x="261" y="512" type="line"/>
      <point x="247" y="526" type="line"/>
      <point x="172" y="435" type="line"/>
    </contour>
    <contour>
      <point x="465" y="147" type="line"/>
      <point x="471" y="164" type="line"/>
      <point x="438" y="186" type="line"/>
      <point x="432" y="169" type="line"/>
    </contour>
    <contour>
      <point x="288" y="418" type="line"/>
      <point x="303" y="428" type="line"/>
      <point x="257" y="520" type="line"/>
      <point x="242" y="510" type="line"/>
    </contour>
    <contour>
      <point x="425" y="175" type="line"/>
      <point x="445" y="175" type="line"/>
      <point x="445" y="435" type="line"/>
      <point x="425" y="435" type="line"/>
    </contour>
    <contour>
      <point x="243" y="513" type="line"/>
      <point x="263" y="521" type="line"/>
      <point x="161" y="586" type="line"/>
      <point x="141" y="578" type="line"/>
    </contour>
    <contour>
      <point x="247" y="508" type="line"/>
      <point x="340" y="508" type="line"/>
      <point x="340" y="526" type="line"/>
      <point x="247" y="526" type="line"/>
    </contour>
    <contour>
      <point x="465" y="150" type="line"/>
      <point x="485" y="150" type="line"/>
      <point x="485" y="461" type="line"/>
      <point x="465" y="461" type="line"/>
    </contour>
    <contour>
      <point x="438" y="424" type="line"/>
      <point x="475" y="454" type="line"/>
      <point x="469" y="471" type="line"/>
      <point x="432" y="441" type="line"/>
    </contour>
    <contour>
      <point x="225" y="19" type="line"/>
      <point x="30" y="19" type="line"/>
      <point x="13" y="0" type="line"/>
      <point x="215" y="0" type="line"/>
    </contour>
    <contour>
      <point x="88" y="103" type="line"/>
      <point x="74" y="115" type="line"/>
      <point x="5" y="0" type="line"/>
      <point x="27" y="0" type="line"/>
    </contour>
    <contour>
      <point x="249" y="115" type="line"/>
      <point x="235" y="126" type="line"/>
      <point x="190" y="57" type="line"/>
      <point x="211" y="57" type="line"/>
    </contour>
    <contour>
      <point x="75" y="91" type="line"/>
      <point x="224" y="136" type="line"/>
      <point x="207" y="150" type="line"/>
      <point x="67" y="109" type="line"/>
    </contour>
    <contour>
      <point x="211" y="76" type="line"/>
      <point x="195" y="61" type="line"/>
      <point x="207" y="0" type="line"/>
      <point x="221" y="15" type="line"/>
    </contour>
    <contour>
      <point x="206" y="77" type="line"/>
      <point x="17" y="16" type="line"/>
      <point x="23" y="0" type="line"/>
      <point x="213" y="62" type="line"/>
    </contour>
    <contour>
      <point x="235" y="126" type="line"/>
      <point x="249" y="115" type="line"/>
      <point x="461" y="543" type="line"/>
      <point x="440" y="543" type="line"/>
    </contour>
    <contour>
      <point x="168" y="155" type="line"/>
      <point x="185" y="149" type="line"/>
      <point x="314" y="429" type="line"/>
      <point x="294" y="434" type="line"/>
    </contour>
    <contour>
      <point x="301" y="165" type="line"/>
      <point x="321" y="161" type="line"/>
      <point x="444" y="434" type="line"/>
      <point x="424" y="439" type="line"/>
    </contour>
    <contour>
      <point x="249" y="115" type="line"/>
      <point x="321" y="161" type="line"/>
      <point x="315" y="179" type="line"/>
      <point x="236" y="126" type="line"/>
    </contour>
    <contour>
      <point x="389" y="467" type="line"/>
      <point x="293" y="435" type="line"/>
      <point x="296" y="417" type="line"/>
      <point x="402" y="454" type="line"/>
    </contour>
    <contour>
      <point x="255" y="0" type="line"/>
      <point x="259" y="16" type="line"/>
      <point x="237" y="38" type="line"/>
      <point x="225" y="24" type="line"/>
    </contour>
    <contour>
      <point x="485" y="498" type="line"/>
      <point x="465" y="496" type="line"/>
      <point x="462" y="454" type="line"/>
      <point x="485" y="461" type="line"/>
    </contour>
    <contour>
      <point x="373" y="600" type="line"/>
      <point x="331" y="514" type="line"/>
      <point x="346" y="505" type="line"/>
      <point x="394" y="600" type="line"/>
    </contour>
    <contour>
      <point x="288" y="600" type="line"/>
      <point x="145" y="600" type="line"/>
      <point x="145" y="582" type="line"/>
      <point x="288" y="582" type="line"/>
    </contour>
    <contour>
      <point x="340" y="526" type="line"/>
      <point x="326" y="512" type="line"/>
      <point x="431" y="421" type="line"/>
      <point x="445" y="435" type="line"/>
    </contour>
    <contour>
      <point x="371" y="581" type="line"/>
      <point x="513" y="581" type="line"/>
      <point x="521" y="600" type="line"/>
      <point x="381" y="600" type="line"/>
    </contour>
    <contour>
      <point x="465" y="496" type="line"/>
      <point x="482" y="484" type="line"/>
      <point x="531" y="600" type="line"/>
      <point x="509" y="600" type="line"/>
    </contour>
    <contour>
      <point x="474" y="501" type="line"/>
      <point x="381" y="465" type="line"/>
      <point x="394" y="452" type="line"/>
      <point x="476" y="481" type="line"/>
    </contour>
    <contour>
      <point x="440" y="524" type="line"/>
      <point x="455" y="535" type="line"/>
      <point x="385" y="600" type="line"/>
      <point x="371" y="585" type="line"/>
    </contour>
    <contour>
      <point x="445" y="523" type="line"/>
      <point x="521" y="584" type="line"/>
      <point x="516" y="600" type="line"/>
      <point x="435" y="539" type="line"/>
    </contour>
    <contour>
      <point x="288" y="600" type="line"/>
      <point x="278" y="584" type="line"/>
      <point x="365" y="559" type="line"/>
      <point x="376" y="574" type="line"/>
    </contour>
  </outline>
</glyph>
<glyph name="Lcaron" format="2">
  <advance width="430"/>
  <unicode hex="013D"/>
  <anchor x="230" y="0" name="bottom"/>
  <anchor x="120" y="300" name="center"/>
  <anchor x="120" y="600" name="top"/>
  <anchor x="315" y="600" name="topright"/>
  <outline>
    <contour>
      <point x="275" y="490" type="line"/>
      <point x="292" y="490" type="line"/>
      <point x="292" y="594" type="line"/>
      <point x="275" y="594" type="line"/>
    </contour>
    <contour>
      <point x="278" y="592" type="line"/>
      <point x="339" y="557" type="line"/>
      <point x="353" y="565" type="line"/>
      <point x="292" y="600" type="line"/>
    </contour>
    <contour>
      <point x="278" y="490" type="line"/>
      <point x="329" y="490" type="line"/>
      <point x="333" y="506" type="line"/>
      <point x="283" y="506" type="line"/>
    </contour>
    <contour>
      <point x="320" y="497" type="line"/>
      <point x="336" y="497" type="line"/>
      <point x="357" y="570" type="line"/>
      <point x="341" y="570" type="line"/>
    </contour>
    <contour>
      <point x="275" y="587" type="line"/>
      <point x="372" y="587" type="line"/>
      <point x="372" y="600" type="line"/>
      <point x="275" y="600" type="line"/>
    </contour>
    <contour>
      <point x="315" y="490" type="line"/>
      <point x="334" y="490" type="line"/>
      <point x="389" y="600" type="line"/>
      <point x="369" y="600" type="line"/>
    </contour>
    <contour>
      <point x="339" y="563" type="line"/>
      <point x="348" y="552" type="line"/>
      <point x="371" y="590" type="line"/>
      <point x="360" y="600" type="line"/>
    </contour>
    <component base="L"/>
  </outline>
</glyph>
<glyph name="endash" format="2">
  <advance width="441"/>
  <unicode hex="2013"/>
  <outline>
    <contour>
      <point x="15" y="264" type="line"/>
      <point x="420" y="264" type="line"/>
      <point x="420" y="282" type="line"/>
      <point x="15" y="282" type="line"/>
    </contour>
    <contour>
      <point x="29" y="264" type="line"/>
      <point x="147" y="300" type="line"/>
      <point x="131" y="313" type="line"/>
      <point x="15" y="278" type="line"/>
    </contour>
    <contour>
      <point x="412" y="264" type="line"/>
      <point x="426" y="278" type="line"/>
      <point x="389" y="314" type="line"/>
      <point x="374" y="300" type="line"/>
    </contour>
    <contour>
      <point x="15" y="264" type="line"/>
      <point x="35" y="264" type="line"/>
      <point x="35" y="349" type="line"/>
      <point x="15" y="349" type="line"/>
    </contour>
    <contour>
      <point x="131" y="296" type="line"/>
      <point x="394" y="296" type="line"/>
      <point x="394" y="319" type="line"/>
      <point x="131" y="319" type="line"/>
    </contour>
    <contour>
      <point x="406" y="264" type="line"/>
      <point x="426" y="264" type="line"/>
      <point x="426" y="349" type="line"/>
      <point x="406" y="349" type="line"/>
    </contour>
    <contour>
      <point x="132" y="300" type="line"/>
      <point x="147" y="314" type="line"/>
      <point x="29" y="349" type="line"/>
      <point x="15" y="335" type="line"/>
    </contour>
    <contour>
      <point x="18" y="331" type="line"/>
      <point x="420" y="331" type="line"/>
      <point x="420" y="349" type="line"/>
      <point x="18" y="349" type="line"/>
    </contour>
    <contour>
      <point x="389" y="300" type="line"/>
      <point x="425" y="335" type="line"/>
      <point x="411" y="349" type="line"/>
      <point x="374" y="314" type="line"/>
    </contour>
  </outline>
</glyph>
<glyph name="emdash" format="2">
  <advance width="641"/>
  <unicode hex="2014"/>
  <outline>
    <contour>
      <point x="15" y="264" type="line"/>
      <point x="620" y="264" type="line"/>
      <point x="620" y="282" type="line"/>
      <point x="15" y="282" type="line"/>
    </contour>
    <contour>
      <point x="29" y="264" type="line"/>
      <point x="147" y="300" type="line"/>
      <point x="131" y="313" type="line"/>
      <point x="15" y="278" type="line"/>
    </contour>
    <contour>
      <point x="612" y="264" type="line"/>
      <point x="626" y="278" type="line"/>
      <point x="589" y="314" type="line"/>
      <point x="574" y="300" type="line"/>
    </contour>
    <contour>
      <point x="15" y="264" type="line"/>
      <point x="35" y="264" type="line"/>
      <point x="35" y="349" type="line"/>
      <point x="15" y="349" type="line"/>
    </contour>
    <contour>
      <point x="131" y="296" type="line"/>
      <point x="594" y="296" type="line"/>
      <point x="594" y="319" type="line"/>
      <point x="131" y="319" type="line"/>
    </contour>
    <contour>
      <point x="606" y="264" type="line"/>
      <point x="626" y="264" type="line"/>
      <point x="626" y="349" type="line"/>
      <point x="606" y="349" type="line"/>
    </contour>
    <contour>
      <point x="132" y="300" type="line"/>
      <point x="147" y="314" type="line"/>
      <point x="29" y="349" type="line"/>
      <point x="15" y="335" type="line"/>
    </contour>
    <contour>
      <point x="18" y="331" type="line"/>
      <point x="620" y="331" type="line"/>
      <point x="620" y="349" type="line"/>
      <point x="18" y="349" type="line"/>
    </contour>
    <contour>
      <point x="589" y="300" type="line"/>
      <point x="625" y="335" type="line"/>
      <point x="611" y="349" type="line"/>
      <point x="574" y="314" type="line"/>
    </contour>
  </outline>
</glyph>
<glyph name="quoteleft" format="2">
  <advance width="192"/>
  <unicode hex="2018"/>
  <outline>
    <contour>
      <point x="162" y="503" type="line"/>
      <point x="30" y="503" type="line"/>
      <point x="30" y="489" type="line"/>
      <point x="162" y="489" type="line"/>
    </contour>
    <contour>
      <point x="151" y="503" type="line"/>
      <point x="132" y="448" type="line"/>
      <point x="140" y="432" type="line"/>
      <point x="162" y="492" type="line"/>
    </contour>
    <contour>
      <point x="42" y="503" type="line"/>
      <point x="30" y="492" type="line"/>
      <point x="130" y="431" type="line"/>
      <point x="137" y="447" type="line"/>
    </contour>
    <contour>
      <point x="162" y="503" type="line"/>
      <point x="146" y="503" type="line"/>
      <point x="146" y="371" type="line"/>
      <point x="162" y="371" type="line"/>
    </contour>
    <contour>
      <point x="140" y="444" type="line"/>
      <point x="129" y="444" type="line"/>
      <point x="129" y="431" type="line"/>
      <point x="140" y="431" type="line"/>
    </contour>
    <contour>
      <point x="46" y="503" type="line"/>
      <point x="30" y="503" type="line"/>
      <point x="30" y="371" type="line"/>
      <point x="46" y="371" type="line"/>
    </contour>
    <contour>
      <point x="139" y="443" type="line"/>
      <point x="132" y="427" type="line"/>
      <point x="151" y="371" type="line"/>
      <point x="162" y="383" type="line"/>
    </contour>
    <contour>
      <point x="160" y="386" type="line"/>
      <point x="30" y="386" type="line"/>
      <point x="30" y="371" type="line"/>
      <point x="160" y="371" type="line"/>
    </contour>
    <contour>
      <point x="130" y="443" type="line"/>
      <point x="31" y="383" type="line"/>
      <point x="42" y="371" type="line"/>
      <point x="137" y="427" type="line"/>
    </contour>
    <contour>
      <point x="162" y="605" type="line"/>
      <point x="146" y="605" type="line"/>
      <point x="146" y="541" type="line"/>
      <point x="162" y="539" type="line"/>
    </contour>
    <contour>
      <point x="152" y="551" type="line"/>
      <point x="99" y="503" type="line"/>
      <point x="113" y="492" type="line"/>
      <point x="162" y="539" type="line"/>
    </contour>
    <contour>
      <point x="150" y="615" type="line"/>
      <point x="30" y="503" type="line"/>
      <point x="41" y="491" type="line"/>
      <point x="162" y="604" type="line"/>
      <point x="162" y="615" type="line"/>
    </contour>
  </outline>
</glyph>
<glyph name="quotesinglbase" format="2">
  <advance width="192"/>
  <unicode hex="201A"/>
  <outline>
    <contour>
      <point x="30" y="67" type="line"/>
      <point x="162" y="67" type="line"/>
      <point x="162" y="81" type="line"/>
      <point x="30" y="81" type="line"/>
    </contour>
    <contour>
      <point x="41" y="67" type="line"/>
      <point x="138" y="122" type="line"/>
      <point x="130" y="138" type="line"/>
      <point x="30" y="78" type="line"/>
    </contour>
    <contour>
      <point x="150" y="67" type="line"/>
      <point x="162" y="78" type="line"/>
      <point x="140" y="139" type="line"/>
      <point x="133" y="123" type="line"/>
    </contour>
    <contour>
      <point x="30" y="67" type="line"/>
      <point x="46" y="67" type="line"/>
      <point x="46" y="199" type="line"/>
      <point x="30" y="199" type="line"/>
    </contour>
    <contour>
      <point x="130" y="126" type="line"/>
      <point x="141" y="126" type="line"/>
      <point x="141" y="139" type="line"/>
      <point x="130" y="139" type="line"/>
    </contour>
    <contour>
      <point x="146" y="67" type="line"/>
      <point x="162" y="67" type="line"/>
      <point x="162" y="199" type="line"/>
      <point x="146" y="199" type="line"/>
    </contour>
    <contour>
      <point x="131" y="127" type="line"/>
      <point x="138" y="143" type="line"/>
      <point x="41" y="199" type="line"/>
      <point x="30" y="187" type="line"/>
    </contour>
    <contour>
      <point x="32" y="184" type="line"/>
      <point x="162" y="184" type="line"/>
      <point x="162" y="199" type="line"/>
      <point x="32" y="199" type="line"/>
    </contour>
    <contour>
      <point x="140" y="127" type="line"/>
      <point x="161" y="187" type="line"/>
      <point x="150" y="199" type="line"/>
      <point x="133" y="143" type="line"/>
    </contour>
    <contour>
      <point x="30" y="-35" type="line"/>
      <point x="46" y="-35" type="line"/>
      <point x="46" y="29" type="line"/>
      <point x="30" y="31" type="line"/>
    </contour>
    <contour>
      <point x="40" y="19" type="line"/>
      <point x="93" y="67" type="line"/>
      <point x="79" y="78" type="line"/>
      <point x="30" y="31" type="line"/>
    </contour>
    <contour>
      <point x="42" y="-45" type="line"/>
      <point x="162" y="67" type="line"/>
      <point x="151" y="79" type="line"/>
      <point x="30" y="-34" type="line"/>
      <point x="30" y="-45" type="line"/>
    </contour>
  </outline>
</glyph>
<glyph name="quotedblleft" format="2">
  <advance width="342"/>
  <unicode hex="201C"/>
  <outline>
    <contour>
      <point x="312" y="503" type="line"/>
      <point x="180" y="503" type="line"/>
      <point x="180" y="489" type="line"/>
      <point x="312" y="489" type="line"/>
    </contour>
    <contour>
      <point x="301" y="503" type="line"/>
      <point x="282" y="448" type="line"/>
      <point x="290" y="432" type="line"/>
      <point x="312" y="492" type="line"/>
    </contour>
    <contour>
      <point x="192" y="503" type="line"/>
      <point x="180" y="492" type="line"/>
      <point x="280" y="431" type="line"/>
      <point x="287" y="447" type="line"/>
    </contour>
    <contour>
      <point x="312" y="503" type="line"/>
      <point x="296" y="503" type="line"/>
      <point x="296" y="371" type="line"/>
      <point x="312" y="371" type="line"/>
    </contour>
    <contour>
      <point x="290" y="444" type="line"/>
      <point x="279" y="444" type="line"/>
      <point x="279" y="431" type="line"/>
      <point x="290" y="431" type="line"/>
    </contour>
    <contour>
      <point x="196" y="503" type="line"/>
      <point x="180" y="503" type="line"/>
      <point x="180" y="371" type="line"/>
      <point x="196" y="371" type="line"/>
    </contour>
    <contour>
      <point x="289" y="443" type="line"/>
      <point x="282" y="427" type="line"/>
      <point x="301" y="371" type="line"/>
      <point x="312" y="383" type="line"/>
    </contour>
    <contour>
      <point x="310" y="386" type="line"/>
      <point x="180" y="386" type="line"/>
      <point x="180" y="371" type="line"/>
      <point x="310" y="371" type="line"/>
    </contour>
    <contour>
      <point x="280" y="443" type="line"/>
      <point x="181" y="383" type="line"/>
      <point x="192" y="371" type="line"/>
      <point x="287" y="427" type="line"/>
    </contour>
    <contour>
      <point x="312" y="605" type="line"/>
      <point x="296" y="605" type="line"/>
      <point x="296" y="541" type="line"/>
      <point x="312" y="539" type="line"/>
    </contour>
    <contour>
      <point x="302" y="551" type="line"/>
      <point x="249" y="503" type="line"/>
      <point x="263" y="492" type="line"/>
      <point x="312" y="539" type="line"/>
    </contour>
    <contour>
      <point x="300" y="615" type="line"/>
      <point x="180" y="503" type="line"/>
      <point x="191" y="491" type="line"/>
      <point x="312" y="604" type="line"/>
      <point x="312" y="615" type="line"/>
    </contour>
    <contour>
      <point x="162" y="503" type="line"/>
      <point x="30" y="503" type="line"/>
      <point x="30" y="489" type="line"/>
      <point x="162" y="489" type="line"/>
    </contour>
    <contour>
      <point x="151" y="503" type="line"/>
      <point x="132" y="448" type="line"/>
      <point x="140" y="432" type="line"/>
      <point x="162" y="492" type="line"/>
    </contour>
    <contour>
      <point x="42" y="503" type="line"/>
      <point x="30" y="492" type="line"/>
      <point x="130" y="431" type="line"/>
      <point x="137" y="447" type="line"/>
    </contour>
    <contour>
      <point x="162" y="503" type="line"/>
      <point x="146" y="503" type="line"/>
      <point x="146" y="371" type="line"/>
      <point x="162" y="371" type="line"/>
    </contour>
    <contour>
      <point x="140" y="444" type="line"/>
      <point x="129" y="444" type="line"/>
      <point x="129" y="431" type="line"/>
      <point x="140" y="431" type="line"/>
    </contour>
    <contour>
      <point x="46" y="503" type="line"/>
      <point x="30" y="503" type="line"/>
      <point x="30" y="371" type="line"/>
      <point x="46" y="371" type="line"/>
    </contour>
    <contour>
      <point x="139" y="443" type="line"/>
      <point x="132" y="427" type="line"/>
      <point x="151" y="371" type="line"/>
      <point x="162" y="383" type="line"/>
    </contour>
    <contour>
      <point x="160" y="386" type="line"/>
      <point x="30" y="386" type="line"/>
      <point x="30" y="371" type="line"/>
      <point x="160" y="371" type="line"/>
    </contour>
    <contour>
      <point x="130" y="443" type="line"/>
      <point x="31" y="383" type="line"/>
      <point x="42" y="371" type="line"/>
      <point x="137" y="427" type="line"/>
    </contour>
    <contour>
      <point x="162" y="605" type="line"/>
      <point x="146" y="605" type="line"/>
      <point x="146" y="541" type="line"/>
      <point x="162" y="539" type="line"/>
    </contour>
    <contour>
      <point x="152" y="551" type="line"/>
      <point x="99" y="503" type="line"/>
      <point x="113" y="492" type="line"/>
      <point x="162" y="539" type="line"/>
    </contour>
    <contour>
      <point x="150" y="615" type="line"/>
      <point x="30" y="503" type="line"/>
      <point x="41" y="491" type="line"/>
      <point x="162" y="604" type="line"/>
      <point x="162" y="615" type="line"/>
    </contour>
  </outline>
</glyph>
